G04 #@! TF.GenerationSoftware,KiCad,Pcbnew,(5.1.0)-1*
G04 #@! TF.CreationDate,2019-04-25T01:01:50+07:00*
G04 #@! TF.ProjectId,pcb shield ic cmx1500ge2,70636220-7368-4696-956c-642069632063,rev?*
G04 #@! TF.SameCoordinates,Original*
G04 #@! TF.FileFunction,Copper,L2,Bot*
G04 #@! TF.FilePolarity,Positive*
%FSLAX46Y46*%
G04 Gerber Fmt 4.6, Leading zero omitted, Abs format (unit mm)*
G04 Created by KiCad (PCBNEW (5.1.0)-1) date 2019-04-25 01:01:50*
%MOMM*%
%LPD*%
G04 APERTURE LIST*
%ADD10O,1.727200X2.032000*%
%ADD11C,1.400000*%
%ADD12R,1.400000X1.400000*%
%ADD13C,1.524000*%
%ADD14C,1.600000*%
%ADD15R,2.524000X2.524000*%
%ADD16R,5.080000X1.500000*%
%ADD17C,4.064000*%
%ADD18C,0.600000*%
%ADD19C,0.250000*%
%ADD20C,0.254000*%
G04 APERTURE END LIST*
D10*
X152654000Y-75565000D03*
X150114000Y-75565000D03*
X147574000Y-75565000D03*
X145034000Y-75565000D03*
X142494000Y-75565000D03*
X139954000Y-75565000D03*
X137414000Y-75565000D03*
X134874000Y-75565000D03*
X132334000Y-75565000D03*
X129794000Y-75565000D03*
X156718000Y-75565000D03*
X159258000Y-75565000D03*
X161798000Y-75565000D03*
X164338000Y-75565000D03*
X166878000Y-75565000D03*
X169418000Y-75565000D03*
X171958000Y-75565000D03*
X174498000Y-75565000D03*
D11*
X171878000Y-85215000D03*
X169378000Y-85215000D03*
X166878000Y-85215000D03*
X171878000Y-81915000D03*
X169378000Y-81915000D03*
D12*
X166878000Y-81915000D03*
D13*
X150495000Y-106070400D03*
D14*
X140208000Y-100965000D03*
X142748000Y-100965000D03*
X145288000Y-100965000D03*
X147828000Y-100965000D03*
X150368000Y-100965000D03*
X152908000Y-100965000D03*
X155448000Y-100965000D03*
X157988000Y-100965000D03*
X160528000Y-100965000D03*
X163068000Y-100965000D03*
X163068000Y-88265000D03*
X160528000Y-88265000D03*
X157988000Y-88265000D03*
X155448000Y-88265000D03*
X152908000Y-88265000D03*
X150368000Y-88265000D03*
X147828000Y-88265000D03*
X145288000Y-88265000D03*
X142748000Y-88265000D03*
X140208000Y-88265000D03*
D15*
X116078000Y-118745000D03*
X131318000Y-118745000D03*
X116078000Y-83185000D03*
X131318000Y-83185000D03*
D16*
X175768000Y-95445000D03*
X175768000Y-103945000D03*
D10*
X138938000Y-123825000D03*
X141478000Y-123825000D03*
X144018000Y-123825000D03*
X146558000Y-123825000D03*
X149098000Y-123825000D03*
X151638000Y-123825000D03*
X154178000Y-123825000D03*
X156718000Y-123825000D03*
X161798000Y-123825000D03*
X164338000Y-123825000D03*
X166878000Y-123825000D03*
X169418000Y-123825000D03*
X171958000Y-123825000D03*
X174498000Y-123825000D03*
D17*
X124968000Y-123825000D03*
X177038000Y-118745000D03*
X126238000Y-75565000D03*
X177038000Y-90805000D03*
D18*
X161798000Y-79121000D03*
X154178000Y-119761000D03*
X171196000Y-95377000D03*
D19*
X131318000Y-83185000D02*
X135128000Y-83185000D01*
X135128000Y-83185000D02*
X140208000Y-88265000D01*
X149098000Y-123672600D02*
X149098000Y-123825000D01*
X131318000Y-105892600D02*
X149098000Y-123672600D01*
X131318000Y-83185000D02*
X131318000Y-105892600D01*
X116078000Y-83185000D02*
X116078000Y-118745000D01*
X116078000Y-83185000D02*
X117590000Y-83185000D01*
X136707348Y-75565000D02*
X131627348Y-80645000D01*
X137414000Y-75565000D02*
X136707348Y-75565000D01*
X131627348Y-80645000D02*
X127508000Y-80645000D01*
X124968000Y-83185000D02*
X116078000Y-83185000D01*
X127508000Y-80645000D02*
X124968000Y-83185000D01*
X151638000Y-123825000D02*
X154178000Y-123825000D01*
X147828000Y-88265000D02*
X147828000Y-80010000D01*
X150114000Y-77724000D02*
X150114000Y-75565000D01*
X147828000Y-80010000D02*
X150114000Y-77724000D01*
X164338000Y-84455000D02*
X160528000Y-88265000D01*
X164338000Y-75565000D02*
X164338000Y-84455000D01*
X161798000Y-79375000D02*
X161798000Y-79121000D01*
X152908000Y-88265000D02*
X161798000Y-79375000D01*
X166878000Y-85215000D02*
X168148000Y-83945000D01*
X169418000Y-76831000D02*
X169418000Y-75565000D01*
X168148000Y-78101000D02*
X169418000Y-76831000D01*
X168148000Y-83945000D02*
X168148000Y-78101000D01*
X171878000Y-75645000D02*
X171958000Y-75565000D01*
X171878000Y-81915000D02*
X171878000Y-75645000D01*
X171878000Y-85215000D02*
X173103000Y-85215000D01*
X174498000Y-76831000D02*
X174498000Y-75565000D01*
X174498000Y-83820000D02*
X174498000Y-76831000D01*
X173103000Y-85215000D02*
X174498000Y-83820000D01*
X142748000Y-75819000D02*
X142494000Y-75565000D01*
X142748000Y-88265000D02*
X142748000Y-75819000D01*
X150495000Y-118364000D02*
X150495000Y-106070400D01*
X154178000Y-119761000D02*
X151892000Y-119761000D01*
X151892000Y-119761000D02*
X150495000Y-118364000D01*
X175768000Y-95445000D02*
X173978000Y-95445000D01*
X171264000Y-95445000D02*
X171196000Y-95377000D01*
X175768000Y-95445000D02*
X171264000Y-95445000D01*
X173978000Y-103945000D02*
X175768000Y-103945000D01*
X171196000Y-101163000D02*
X173978000Y-103945000D01*
X171196000Y-95377000D02*
X171196000Y-101163000D01*
X132830000Y-118745000D02*
X131318000Y-118745000D01*
X145288000Y-75819000D02*
X145034000Y-75565000D01*
X145288000Y-88265000D02*
X145288000Y-75819000D01*
X147574000Y-76831000D02*
X147574000Y-75565000D01*
X146702999Y-77702001D02*
X147574000Y-76831000D01*
X146702999Y-88805001D02*
X146702999Y-77702001D01*
X147287999Y-89390001D02*
X146702999Y-88805001D01*
X149242999Y-89390001D02*
X147287999Y-89390001D01*
X150368000Y-88265000D02*
X149242999Y-89390001D01*
X169378000Y-86204949D02*
X169418000Y-86244949D01*
X169378000Y-85215000D02*
X169378000Y-86204949D01*
X159893000Y-92075000D02*
X157988000Y-90170000D01*
X166243000Y-92075000D02*
X159893000Y-92075000D01*
X157988000Y-90170000D02*
X157988000Y-88265000D01*
X169378000Y-85215000D02*
X169378000Y-88940000D01*
X169378000Y-88940000D02*
X166243000Y-92075000D01*
D20*
G36*
X125120595Y-73474481D02*
G01*
X124734225Y-73732645D01*
X124405645Y-74061225D01*
X124147481Y-74447595D01*
X123969655Y-74876905D01*
X123879000Y-75332659D01*
X123879000Y-75797341D01*
X123969655Y-76253095D01*
X124147481Y-76682405D01*
X124405645Y-77068775D01*
X124734225Y-77397355D01*
X125120595Y-77655519D01*
X125549905Y-77833345D01*
X126005659Y-77924000D01*
X126470341Y-77924000D01*
X126926095Y-77833345D01*
X127355405Y-77655519D01*
X127741775Y-77397355D01*
X128070355Y-77068775D01*
X128328519Y-76682405D01*
X128506345Y-76253095D01*
X128597000Y-75797341D01*
X128597000Y-75354120D01*
X128603400Y-75354120D01*
X128603400Y-75775881D01*
X128620628Y-75950798D01*
X128688707Y-76175227D01*
X128799264Y-76382062D01*
X128948047Y-76563354D01*
X129129339Y-76712137D01*
X129336174Y-76822693D01*
X129560603Y-76890772D01*
X129794000Y-76913760D01*
X130027398Y-76890772D01*
X130251827Y-76822693D01*
X130458662Y-76712137D01*
X130639954Y-76563354D01*
X130788737Y-76382061D01*
X130899293Y-76175226D01*
X130967372Y-75950797D01*
X130984600Y-75775880D01*
X130984600Y-75354120D01*
X131143400Y-75354120D01*
X131143400Y-75775881D01*
X131160628Y-75950798D01*
X131228707Y-76175227D01*
X131339264Y-76382062D01*
X131488047Y-76563354D01*
X131669339Y-76712137D01*
X131876174Y-76822693D01*
X132100603Y-76890772D01*
X132334000Y-76913760D01*
X132567398Y-76890772D01*
X132791827Y-76822693D01*
X132998662Y-76712137D01*
X133179954Y-76563354D01*
X133328737Y-76382061D01*
X133439293Y-76175226D01*
X133507372Y-75950797D01*
X133524600Y-75775880D01*
X133524600Y-75354120D01*
X133683400Y-75354120D01*
X133683400Y-75775881D01*
X133700628Y-75950798D01*
X133768707Y-76175227D01*
X133879264Y-76382062D01*
X134028047Y-76563354D01*
X134209339Y-76712137D01*
X134416174Y-76822693D01*
X134640603Y-76890772D01*
X134874000Y-76913760D01*
X135107398Y-76890772D01*
X135331827Y-76822693D01*
X135538662Y-76712137D01*
X135719954Y-76563354D01*
X135868737Y-76382061D01*
X135979293Y-76175226D01*
X135984761Y-76157202D01*
X135998227Y-76212633D01*
X136122046Y-76479321D01*
X136295514Y-76716729D01*
X136511965Y-76915733D01*
X136763081Y-77068686D01*
X137039211Y-77169709D01*
X137054974Y-77172358D01*
X137287000Y-77051217D01*
X137287000Y-75692000D01*
X137267000Y-75692000D01*
X137267000Y-75438000D01*
X137287000Y-75438000D01*
X137287000Y-74078783D01*
X137541000Y-74078783D01*
X137541000Y-75438000D01*
X137561000Y-75438000D01*
X137561000Y-75692000D01*
X137541000Y-75692000D01*
X137541000Y-77051217D01*
X137773026Y-77172358D01*
X137788789Y-77169709D01*
X138064919Y-77068686D01*
X138316035Y-76915733D01*
X138532486Y-76716729D01*
X138705954Y-76479321D01*
X138829773Y-76212633D01*
X138843239Y-76157202D01*
X138848707Y-76175227D01*
X138959264Y-76382062D01*
X139108047Y-76563354D01*
X139289339Y-76712137D01*
X139496174Y-76822693D01*
X139720603Y-76890772D01*
X139954000Y-76913760D01*
X140187398Y-76890772D01*
X140411827Y-76822693D01*
X140618662Y-76712137D01*
X140799954Y-76563354D01*
X140948737Y-76382061D01*
X141059293Y-76175226D01*
X141127372Y-75950797D01*
X141144600Y-75775880D01*
X141144600Y-75354120D01*
X141303400Y-75354120D01*
X141303400Y-75775881D01*
X141320628Y-75950798D01*
X141388707Y-76175227D01*
X141499264Y-76382062D01*
X141648047Y-76563354D01*
X141829339Y-76712137D01*
X142036174Y-76822693D01*
X142260603Y-76890772D01*
X142296001Y-76894258D01*
X142296000Y-87232369D01*
X142214165Y-87266266D01*
X142029579Y-87389602D01*
X141872602Y-87546579D01*
X141749266Y-87731165D01*
X141664310Y-87936266D01*
X141621000Y-88154000D01*
X141621000Y-88376000D01*
X141664310Y-88593734D01*
X141749266Y-88798835D01*
X141872602Y-88983421D01*
X142029579Y-89140398D01*
X142214165Y-89263734D01*
X142419266Y-89348690D01*
X142637000Y-89392000D01*
X142859000Y-89392000D01*
X143076734Y-89348690D01*
X143281835Y-89263734D01*
X143466421Y-89140398D01*
X143623398Y-88983421D01*
X143746734Y-88798835D01*
X143831690Y-88593734D01*
X143875000Y-88376000D01*
X143875000Y-88154000D01*
X143831690Y-87936266D01*
X143746734Y-87731165D01*
X143623398Y-87546579D01*
X143466421Y-87389602D01*
X143281835Y-87266266D01*
X143200000Y-87232369D01*
X143200000Y-76678212D01*
X143339954Y-76563354D01*
X143488737Y-76382061D01*
X143599293Y-76175226D01*
X143667372Y-75950797D01*
X143684600Y-75775880D01*
X143684600Y-75354120D01*
X143843400Y-75354120D01*
X143843400Y-75775881D01*
X143860628Y-75950798D01*
X143928707Y-76175227D01*
X144039264Y-76382062D01*
X144188047Y-76563354D01*
X144369339Y-76712137D01*
X144576174Y-76822693D01*
X144800603Y-76890772D01*
X144836001Y-76894258D01*
X144836000Y-87232369D01*
X144754165Y-87266266D01*
X144569579Y-87389602D01*
X144412602Y-87546579D01*
X144289266Y-87731165D01*
X144204310Y-87936266D01*
X144161000Y-88154000D01*
X144161000Y-88376000D01*
X144204310Y-88593734D01*
X144289266Y-88798835D01*
X144412602Y-88983421D01*
X144569579Y-89140398D01*
X144754165Y-89263734D01*
X144959266Y-89348690D01*
X145177000Y-89392000D01*
X145399000Y-89392000D01*
X145616734Y-89348690D01*
X145821835Y-89263734D01*
X146006421Y-89140398D01*
X146163398Y-88983421D01*
X146253155Y-88849090D01*
X146257539Y-88893607D01*
X146283385Y-88978810D01*
X146325356Y-89057333D01*
X146381840Y-89126160D01*
X146399099Y-89140324D01*
X146952680Y-89693906D01*
X146966840Y-89711160D01*
X147035666Y-89767644D01*
X147081903Y-89792358D01*
X147114189Y-89809615D01*
X147199391Y-89835461D01*
X147287999Y-89844188D01*
X147310204Y-89842001D01*
X149220794Y-89842001D01*
X149242999Y-89844188D01*
X149265204Y-89842001D01*
X149331606Y-89835461D01*
X149416809Y-89809615D01*
X149495332Y-89767644D01*
X149564158Y-89711160D01*
X149578322Y-89693901D01*
X149957431Y-89314793D01*
X150039266Y-89348690D01*
X150257000Y-89392000D01*
X150479000Y-89392000D01*
X150696734Y-89348690D01*
X150901835Y-89263734D01*
X151086421Y-89140398D01*
X151243398Y-88983421D01*
X151366734Y-88798835D01*
X151451690Y-88593734D01*
X151495000Y-88376000D01*
X151495000Y-88154000D01*
X151781000Y-88154000D01*
X151781000Y-88376000D01*
X151824310Y-88593734D01*
X151909266Y-88798835D01*
X152032602Y-88983421D01*
X152189579Y-89140398D01*
X152374165Y-89263734D01*
X152579266Y-89348690D01*
X152797000Y-89392000D01*
X153019000Y-89392000D01*
X153236734Y-89348690D01*
X153441835Y-89263734D01*
X153626421Y-89140398D01*
X153783398Y-88983421D01*
X153906734Y-88798835D01*
X153991690Y-88593734D01*
X154035000Y-88376000D01*
X154035000Y-88154000D01*
X154321000Y-88154000D01*
X154321000Y-88376000D01*
X154364310Y-88593734D01*
X154449266Y-88798835D01*
X154572602Y-88983421D01*
X154729579Y-89140398D01*
X154914165Y-89263734D01*
X155119266Y-89348690D01*
X155337000Y-89392000D01*
X155559000Y-89392000D01*
X155776734Y-89348690D01*
X155981835Y-89263734D01*
X156166421Y-89140398D01*
X156323398Y-88983421D01*
X156446734Y-88798835D01*
X156531690Y-88593734D01*
X156575000Y-88376000D01*
X156575000Y-88154000D01*
X156861000Y-88154000D01*
X156861000Y-88376000D01*
X156904310Y-88593734D01*
X156989266Y-88798835D01*
X157112602Y-88983421D01*
X157269579Y-89140398D01*
X157454165Y-89263734D01*
X157536000Y-89297632D01*
X157536000Y-90147795D01*
X157533813Y-90170000D01*
X157536000Y-90192204D01*
X157542540Y-90258606D01*
X157568386Y-90343809D01*
X157610357Y-90422332D01*
X157666841Y-90491159D01*
X157684100Y-90505323D01*
X159557681Y-92378905D01*
X159571841Y-92396159D01*
X159640667Y-92452643D01*
X159719190Y-92494614D01*
X159804392Y-92520460D01*
X159893000Y-92529187D01*
X159915205Y-92527000D01*
X166220795Y-92527000D01*
X166243000Y-92529187D01*
X166265205Y-92527000D01*
X166331607Y-92520460D01*
X166416810Y-92494614D01*
X166495333Y-92452643D01*
X166564159Y-92396159D01*
X166578323Y-92378900D01*
X169681905Y-89275319D01*
X169699159Y-89261159D01*
X169755643Y-89192333D01*
X169797614Y-89113810D01*
X169799100Y-89108911D01*
X169823460Y-89028608D01*
X169832187Y-88940000D01*
X169830000Y-88917795D01*
X169830000Y-86433003D01*
X169837614Y-86418758D01*
X169863460Y-86333556D01*
X169872187Y-86244949D01*
X169863460Y-86156342D01*
X169855157Y-86128971D01*
X169864467Y-86125115D01*
X170032674Y-86012723D01*
X170175723Y-85869674D01*
X170288115Y-85701467D01*
X170365533Y-85514565D01*
X170405000Y-85316151D01*
X170405000Y-85113849D01*
X170851000Y-85113849D01*
X170851000Y-85316151D01*
X170890467Y-85514565D01*
X170967885Y-85701467D01*
X171080277Y-85869674D01*
X171223326Y-86012723D01*
X171391533Y-86125115D01*
X171578435Y-86202533D01*
X171776849Y-86242000D01*
X171979151Y-86242000D01*
X172177565Y-86202533D01*
X172364467Y-86125115D01*
X172532674Y-86012723D01*
X172675723Y-85869674D01*
X172788115Y-85701467D01*
X172802392Y-85667000D01*
X173080795Y-85667000D01*
X173103000Y-85669187D01*
X173125205Y-85667000D01*
X173191607Y-85660460D01*
X173276810Y-85634614D01*
X173355333Y-85592643D01*
X173424159Y-85536159D01*
X173438323Y-85518900D01*
X174801906Y-84155318D01*
X174819159Y-84141159D01*
X174875643Y-84072333D01*
X174917614Y-83993810D01*
X174943460Y-83908607D01*
X174950000Y-83842205D01*
X174950000Y-83842204D01*
X174952187Y-83820000D01*
X174950000Y-83797795D01*
X174950000Y-76824461D01*
X174955827Y-76822693D01*
X175162662Y-76712137D01*
X175343954Y-76563354D01*
X175492737Y-76382061D01*
X175603293Y-76175226D01*
X175671372Y-75950797D01*
X175688600Y-75775880D01*
X175688600Y-75354119D01*
X175671372Y-75179202D01*
X175603293Y-74954773D01*
X175492737Y-74747938D01*
X175343954Y-74566646D01*
X175162661Y-74417863D01*
X174955826Y-74307307D01*
X174731397Y-74239228D01*
X174498000Y-74216240D01*
X174264602Y-74239228D01*
X174040173Y-74307307D01*
X173833338Y-74417863D01*
X173652046Y-74566646D01*
X173503263Y-74747939D01*
X173392707Y-74954774D01*
X173324628Y-75179203D01*
X173307400Y-75354120D01*
X173307400Y-75775881D01*
X173324628Y-75950798D01*
X173392707Y-76175227D01*
X173503264Y-76382062D01*
X173652047Y-76563354D01*
X173833339Y-76712137D01*
X174040174Y-76822693D01*
X174046000Y-76824460D01*
X174046000Y-76853204D01*
X174046001Y-76853214D01*
X174046000Y-83632776D01*
X172915777Y-84763000D01*
X172802392Y-84763000D01*
X172788115Y-84728533D01*
X172675723Y-84560326D01*
X172532674Y-84417277D01*
X172364467Y-84304885D01*
X172177565Y-84227467D01*
X171979151Y-84188000D01*
X171776849Y-84188000D01*
X171578435Y-84227467D01*
X171391533Y-84304885D01*
X171223326Y-84417277D01*
X171080277Y-84560326D01*
X170967885Y-84728533D01*
X170890467Y-84915435D01*
X170851000Y-85113849D01*
X170405000Y-85113849D01*
X170365533Y-84915435D01*
X170288115Y-84728533D01*
X170175723Y-84560326D01*
X170032674Y-84417277D01*
X169864467Y-84304885D01*
X169677565Y-84227467D01*
X169479151Y-84188000D01*
X169276849Y-84188000D01*
X169078435Y-84227467D01*
X168891533Y-84304885D01*
X168723326Y-84417277D01*
X168580277Y-84560326D01*
X168467885Y-84728533D01*
X168390467Y-84915435D01*
X168351000Y-85113849D01*
X168351000Y-85316151D01*
X168390467Y-85514565D01*
X168467885Y-85701467D01*
X168580277Y-85869674D01*
X168723326Y-86012723D01*
X168891533Y-86125115D01*
X168926000Y-86139392D01*
X168926000Y-86182741D01*
X168923813Y-86204949D01*
X168926000Y-86227154D01*
X168926001Y-88752775D01*
X166055777Y-91623000D01*
X160080224Y-91623000D01*
X158440000Y-89982777D01*
X158440000Y-89297631D01*
X158521835Y-89263734D01*
X158706421Y-89140398D01*
X158863398Y-88983421D01*
X158986734Y-88798835D01*
X159071690Y-88593734D01*
X159115000Y-88376000D01*
X159115000Y-88154000D01*
X159401000Y-88154000D01*
X159401000Y-88376000D01*
X159444310Y-88593734D01*
X159529266Y-88798835D01*
X159652602Y-88983421D01*
X159809579Y-89140398D01*
X159994165Y-89263734D01*
X160199266Y-89348690D01*
X160417000Y-89392000D01*
X160639000Y-89392000D01*
X160856734Y-89348690D01*
X161061835Y-89263734D01*
X161070862Y-89257702D01*
X162254903Y-89257702D01*
X162326486Y-89501671D01*
X162581996Y-89622571D01*
X162856184Y-89691300D01*
X163138512Y-89705217D01*
X163418130Y-89663787D01*
X163684292Y-89568603D01*
X163809514Y-89501671D01*
X163881097Y-89257702D01*
X163068000Y-88444605D01*
X162254903Y-89257702D01*
X161070862Y-89257702D01*
X161246421Y-89140398D01*
X161403398Y-88983421D01*
X161526734Y-88798835D01*
X161611690Y-88593734D01*
X161642840Y-88437133D01*
X161669213Y-88615130D01*
X161764397Y-88881292D01*
X161831329Y-89006514D01*
X162075298Y-89078097D01*
X162888395Y-88265000D01*
X163247605Y-88265000D01*
X164060702Y-89078097D01*
X164304671Y-89006514D01*
X164425571Y-88751004D01*
X164494300Y-88476816D01*
X164508217Y-88194488D01*
X164466787Y-87914870D01*
X164371603Y-87648708D01*
X164304671Y-87523486D01*
X164060702Y-87451903D01*
X163247605Y-88265000D01*
X162888395Y-88265000D01*
X162874253Y-88250858D01*
X163053858Y-88071253D01*
X163068000Y-88085395D01*
X163881097Y-87272298D01*
X163809514Y-87028329D01*
X163554004Y-86907429D01*
X163279816Y-86838700D01*
X162997488Y-86824783D01*
X162717870Y-86866213D01*
X162481470Y-86950754D01*
X164641905Y-84790319D01*
X164659159Y-84776159D01*
X164715643Y-84707333D01*
X164757614Y-84628810D01*
X164775004Y-84571482D01*
X164783460Y-84543608D01*
X164792187Y-84455000D01*
X164790000Y-84432795D01*
X164790000Y-81215000D01*
X165849418Y-81215000D01*
X165849418Y-82615000D01*
X165855732Y-82679103D01*
X165874430Y-82740743D01*
X165904794Y-82797550D01*
X165945657Y-82847343D01*
X165995450Y-82888206D01*
X166052257Y-82918570D01*
X166113897Y-82937268D01*
X166178000Y-82943582D01*
X167578000Y-82943582D01*
X167642103Y-82937268D01*
X167696000Y-82920919D01*
X167696000Y-83757775D01*
X167212032Y-84241744D01*
X167177565Y-84227467D01*
X166979151Y-84188000D01*
X166776849Y-84188000D01*
X166578435Y-84227467D01*
X166391533Y-84304885D01*
X166223326Y-84417277D01*
X166080277Y-84560326D01*
X165967885Y-84728533D01*
X165890467Y-84915435D01*
X165851000Y-85113849D01*
X165851000Y-85316151D01*
X165890467Y-85514565D01*
X165967885Y-85701467D01*
X166080277Y-85869674D01*
X166223326Y-86012723D01*
X166391533Y-86125115D01*
X166578435Y-86202533D01*
X166776849Y-86242000D01*
X166979151Y-86242000D01*
X167177565Y-86202533D01*
X167364467Y-86125115D01*
X167532674Y-86012723D01*
X167675723Y-85869674D01*
X167788115Y-85701467D01*
X167865533Y-85514565D01*
X167905000Y-85316151D01*
X167905000Y-85113849D01*
X167865533Y-84915435D01*
X167851256Y-84880968D01*
X168451912Y-84280313D01*
X168469159Y-84266159D01*
X168525643Y-84197333D01*
X168567614Y-84118810D01*
X168587444Y-84053438D01*
X168593460Y-84033608D01*
X168602187Y-83945001D01*
X168600000Y-83922796D01*
X168600000Y-82589397D01*
X168723326Y-82712723D01*
X168891533Y-82825115D01*
X169078435Y-82902533D01*
X169276849Y-82942000D01*
X169479151Y-82942000D01*
X169677565Y-82902533D01*
X169864467Y-82825115D01*
X170032674Y-82712723D01*
X170175723Y-82569674D01*
X170288115Y-82401467D01*
X170365533Y-82214565D01*
X170405000Y-82016151D01*
X170405000Y-81813849D01*
X170365533Y-81615435D01*
X170288115Y-81428533D01*
X170175723Y-81260326D01*
X170032674Y-81117277D01*
X169864467Y-81004885D01*
X169677565Y-80927467D01*
X169479151Y-80888000D01*
X169276849Y-80888000D01*
X169078435Y-80927467D01*
X168891533Y-81004885D01*
X168723326Y-81117277D01*
X168600000Y-81240603D01*
X168600000Y-78288223D01*
X169721912Y-77166313D01*
X169739159Y-77152159D01*
X169795643Y-77083333D01*
X169837614Y-77004810D01*
X169863460Y-76919607D01*
X169870000Y-76853205D01*
X169870000Y-76853204D01*
X169872187Y-76831001D01*
X169871498Y-76824006D01*
X169875827Y-76822693D01*
X170082662Y-76712137D01*
X170263954Y-76563354D01*
X170412737Y-76382061D01*
X170523293Y-76175226D01*
X170591372Y-75950797D01*
X170608600Y-75775880D01*
X170608600Y-75354120D01*
X170767400Y-75354120D01*
X170767400Y-75775881D01*
X170784628Y-75950798D01*
X170852707Y-76175227D01*
X170963264Y-76382062D01*
X171112047Y-76563354D01*
X171293339Y-76712137D01*
X171426001Y-76783046D01*
X171426000Y-80990608D01*
X171391533Y-81004885D01*
X171223326Y-81117277D01*
X171080277Y-81260326D01*
X170967885Y-81428533D01*
X170890467Y-81615435D01*
X170851000Y-81813849D01*
X170851000Y-82016151D01*
X170890467Y-82214565D01*
X170967885Y-82401467D01*
X171080277Y-82569674D01*
X171223326Y-82712723D01*
X171391533Y-82825115D01*
X171578435Y-82902533D01*
X171776849Y-82942000D01*
X171979151Y-82942000D01*
X172177565Y-82902533D01*
X172364467Y-82825115D01*
X172532674Y-82712723D01*
X172675723Y-82569674D01*
X172788115Y-82401467D01*
X172865533Y-82214565D01*
X172905000Y-82016151D01*
X172905000Y-81813849D01*
X172865533Y-81615435D01*
X172788115Y-81428533D01*
X172675723Y-81260326D01*
X172532674Y-81117277D01*
X172364467Y-81004885D01*
X172330000Y-80990608D01*
X172330000Y-76848728D01*
X172415827Y-76822693D01*
X172622662Y-76712137D01*
X172803954Y-76563354D01*
X172952737Y-76382061D01*
X173063293Y-76175226D01*
X173131372Y-75950797D01*
X173148600Y-75775880D01*
X173148600Y-75354119D01*
X173131372Y-75179202D01*
X173063293Y-74954773D01*
X172952737Y-74747938D01*
X172803954Y-74566646D01*
X172622661Y-74417863D01*
X172415826Y-74307307D01*
X172191397Y-74239228D01*
X171958000Y-74216240D01*
X171724602Y-74239228D01*
X171500173Y-74307307D01*
X171293338Y-74417863D01*
X171112046Y-74566646D01*
X170963263Y-74747939D01*
X170852707Y-74954774D01*
X170784628Y-75179203D01*
X170767400Y-75354120D01*
X170608600Y-75354120D01*
X170608600Y-75354119D01*
X170591372Y-75179202D01*
X170523293Y-74954773D01*
X170412737Y-74747938D01*
X170263954Y-74566646D01*
X170082661Y-74417863D01*
X169875826Y-74307307D01*
X169651397Y-74239228D01*
X169418000Y-74216240D01*
X169184602Y-74239228D01*
X168960173Y-74307307D01*
X168753338Y-74417863D01*
X168572046Y-74566646D01*
X168423263Y-74747939D01*
X168312707Y-74954774D01*
X168244628Y-75179203D01*
X168227400Y-75354120D01*
X168227400Y-75775881D01*
X168244628Y-75950798D01*
X168312707Y-76175227D01*
X168423264Y-76382062D01*
X168572047Y-76563354D01*
X168753339Y-76712137D01*
X168847375Y-76762400D01*
X167844096Y-77765681D01*
X167826842Y-77779841D01*
X167770358Y-77848667D01*
X167728386Y-77927191D01*
X167702540Y-78012393D01*
X167693813Y-78101000D01*
X167696001Y-78123215D01*
X167696001Y-80909081D01*
X167642103Y-80892732D01*
X167578000Y-80886418D01*
X166178000Y-80886418D01*
X166113897Y-80892732D01*
X166052257Y-80911430D01*
X165995450Y-80941794D01*
X165945657Y-80982657D01*
X165904794Y-81032450D01*
X165874430Y-81089257D01*
X165855732Y-81150897D01*
X165849418Y-81215000D01*
X164790000Y-81215000D01*
X164790000Y-76824461D01*
X164795827Y-76822693D01*
X165002662Y-76712137D01*
X165183954Y-76563354D01*
X165332737Y-76382061D01*
X165443293Y-76175226D01*
X165511372Y-75950797D01*
X165528600Y-75775880D01*
X165528600Y-75354120D01*
X165687400Y-75354120D01*
X165687400Y-75775881D01*
X165704628Y-75950798D01*
X165772707Y-76175227D01*
X165883264Y-76382062D01*
X166032047Y-76563354D01*
X166213339Y-76712137D01*
X166420174Y-76822693D01*
X166644603Y-76890772D01*
X166878000Y-76913760D01*
X167111398Y-76890772D01*
X167335827Y-76822693D01*
X167542662Y-76712137D01*
X167723954Y-76563354D01*
X167872737Y-76382061D01*
X167983293Y-76175226D01*
X168051372Y-75950797D01*
X168068600Y-75775880D01*
X168068600Y-75354119D01*
X168051372Y-75179202D01*
X167983293Y-74954773D01*
X167872737Y-74747938D01*
X167723954Y-74566646D01*
X167542661Y-74417863D01*
X167335826Y-74307307D01*
X167111397Y-74239228D01*
X166878000Y-74216240D01*
X166644602Y-74239228D01*
X166420173Y-74307307D01*
X166213338Y-74417863D01*
X166032046Y-74566646D01*
X165883263Y-74747939D01*
X165772707Y-74954774D01*
X165704628Y-75179203D01*
X165687400Y-75354120D01*
X165528600Y-75354120D01*
X165528600Y-75354119D01*
X165511372Y-75179202D01*
X165443293Y-74954773D01*
X165332737Y-74747938D01*
X165183954Y-74566646D01*
X165002661Y-74417863D01*
X164795826Y-74307307D01*
X164571397Y-74239228D01*
X164338000Y-74216240D01*
X164104602Y-74239228D01*
X163880173Y-74307307D01*
X163673338Y-74417863D01*
X163492046Y-74566646D01*
X163343263Y-74747939D01*
X163232707Y-74954774D01*
X163164628Y-75179203D01*
X163147400Y-75354120D01*
X163147400Y-75775881D01*
X163164628Y-75950798D01*
X163232707Y-76175227D01*
X163343264Y-76382062D01*
X163492047Y-76563354D01*
X163673339Y-76712137D01*
X163880174Y-76822693D01*
X163886000Y-76824460D01*
X163886001Y-84267775D01*
X160938569Y-87215207D01*
X160856734Y-87181310D01*
X160639000Y-87138000D01*
X160417000Y-87138000D01*
X160199266Y-87181310D01*
X159994165Y-87266266D01*
X159809579Y-87389602D01*
X159652602Y-87546579D01*
X159529266Y-87731165D01*
X159444310Y-87936266D01*
X159401000Y-88154000D01*
X159115000Y-88154000D01*
X159071690Y-87936266D01*
X158986734Y-87731165D01*
X158863398Y-87546579D01*
X158706421Y-87389602D01*
X158521835Y-87266266D01*
X158316734Y-87181310D01*
X158099000Y-87138000D01*
X157877000Y-87138000D01*
X157659266Y-87181310D01*
X157454165Y-87266266D01*
X157269579Y-87389602D01*
X157112602Y-87546579D01*
X156989266Y-87731165D01*
X156904310Y-87936266D01*
X156861000Y-88154000D01*
X156575000Y-88154000D01*
X156531690Y-87936266D01*
X156446734Y-87731165D01*
X156323398Y-87546579D01*
X156166421Y-87389602D01*
X155981835Y-87266266D01*
X155776734Y-87181310D01*
X155559000Y-87138000D01*
X155337000Y-87138000D01*
X155119266Y-87181310D01*
X154914165Y-87266266D01*
X154729579Y-87389602D01*
X154572602Y-87546579D01*
X154449266Y-87731165D01*
X154364310Y-87936266D01*
X154321000Y-88154000D01*
X154035000Y-88154000D01*
X153991690Y-87936266D01*
X153957793Y-87854431D01*
X162101906Y-79710318D01*
X162119159Y-79696159D01*
X162175643Y-79627333D01*
X162179451Y-79620209D01*
X162197689Y-79608023D01*
X162285023Y-79520689D01*
X162353640Y-79417996D01*
X162400905Y-79303889D01*
X162425000Y-79182754D01*
X162425000Y-79059246D01*
X162400905Y-78938111D01*
X162353640Y-78824004D01*
X162285023Y-78721311D01*
X162197689Y-78633977D01*
X162094996Y-78565360D01*
X161980889Y-78518095D01*
X161859754Y-78494000D01*
X161736246Y-78494000D01*
X161615111Y-78518095D01*
X161501004Y-78565360D01*
X161398311Y-78633977D01*
X161310977Y-78721311D01*
X161242360Y-78824004D01*
X161195095Y-78938111D01*
X161171000Y-79059246D01*
X161171000Y-79182754D01*
X161195095Y-79303889D01*
X161205285Y-79328491D01*
X153318569Y-87215207D01*
X153236734Y-87181310D01*
X153019000Y-87138000D01*
X152797000Y-87138000D01*
X152579266Y-87181310D01*
X152374165Y-87266266D01*
X152189579Y-87389602D01*
X152032602Y-87546579D01*
X151909266Y-87731165D01*
X151824310Y-87936266D01*
X151781000Y-88154000D01*
X151495000Y-88154000D01*
X151451690Y-87936266D01*
X151366734Y-87731165D01*
X151243398Y-87546579D01*
X151086421Y-87389602D01*
X150901835Y-87266266D01*
X150696734Y-87181310D01*
X150479000Y-87138000D01*
X150257000Y-87138000D01*
X150039266Y-87181310D01*
X149834165Y-87266266D01*
X149649579Y-87389602D01*
X149492602Y-87546579D01*
X149369266Y-87731165D01*
X149284310Y-87936266D01*
X149241000Y-88154000D01*
X149241000Y-88376000D01*
X149284310Y-88593734D01*
X149318207Y-88675569D01*
X149055776Y-88938001D01*
X148733747Y-88938001D01*
X148826734Y-88798835D01*
X148911690Y-88593734D01*
X148955000Y-88376000D01*
X148955000Y-88154000D01*
X148911690Y-87936266D01*
X148826734Y-87731165D01*
X148703398Y-87546579D01*
X148546421Y-87389602D01*
X148361835Y-87266266D01*
X148280000Y-87232369D01*
X148280000Y-80197223D01*
X150417912Y-78059313D01*
X150435159Y-78045159D01*
X150491643Y-77976333D01*
X150533614Y-77897810D01*
X150559460Y-77812607D01*
X150566000Y-77746205D01*
X150566000Y-77746204D01*
X150568187Y-77724001D01*
X150566000Y-77701796D01*
X150566000Y-76824461D01*
X150571827Y-76822693D01*
X150778662Y-76712137D01*
X150959954Y-76563354D01*
X151108737Y-76382061D01*
X151219293Y-76175226D01*
X151287372Y-75950797D01*
X151304600Y-75775880D01*
X151304600Y-75354120D01*
X151463400Y-75354120D01*
X151463400Y-75775881D01*
X151480628Y-75950798D01*
X151548707Y-76175227D01*
X151659264Y-76382062D01*
X151808047Y-76563354D01*
X151989339Y-76712137D01*
X152196174Y-76822693D01*
X152420603Y-76890772D01*
X152654000Y-76913760D01*
X152887398Y-76890772D01*
X153111827Y-76822693D01*
X153318662Y-76712137D01*
X153499954Y-76563354D01*
X153648737Y-76382061D01*
X153759293Y-76175226D01*
X153827372Y-75950797D01*
X153844600Y-75775880D01*
X153844600Y-75354120D01*
X155527400Y-75354120D01*
X155527400Y-75775881D01*
X155544628Y-75950798D01*
X155612707Y-76175227D01*
X155723264Y-76382062D01*
X155872047Y-76563354D01*
X156053339Y-76712137D01*
X156260174Y-76822693D01*
X156484603Y-76890772D01*
X156718000Y-76913760D01*
X156951398Y-76890772D01*
X157175827Y-76822693D01*
X157382662Y-76712137D01*
X157563954Y-76563354D01*
X157712737Y-76382061D01*
X157823293Y-76175226D01*
X157891372Y-75950797D01*
X157908600Y-75775880D01*
X157908600Y-75354120D01*
X158067400Y-75354120D01*
X158067400Y-75775881D01*
X158084628Y-75950798D01*
X158152707Y-76175227D01*
X158263264Y-76382062D01*
X158412047Y-76563354D01*
X158593339Y-76712137D01*
X158800174Y-76822693D01*
X159024603Y-76890772D01*
X159258000Y-76913760D01*
X159491398Y-76890772D01*
X159715827Y-76822693D01*
X159922662Y-76712137D01*
X160103954Y-76563354D01*
X160252737Y-76382061D01*
X160363293Y-76175226D01*
X160431372Y-75950797D01*
X160448600Y-75775880D01*
X160448600Y-75354120D01*
X160607400Y-75354120D01*
X160607400Y-75775881D01*
X160624628Y-75950798D01*
X160692707Y-76175227D01*
X160803264Y-76382062D01*
X160952047Y-76563354D01*
X161133339Y-76712137D01*
X161340174Y-76822693D01*
X161564603Y-76890772D01*
X161798000Y-76913760D01*
X162031398Y-76890772D01*
X162255827Y-76822693D01*
X162462662Y-76712137D01*
X162643954Y-76563354D01*
X162792737Y-76382061D01*
X162903293Y-76175226D01*
X162971372Y-75950797D01*
X162988600Y-75775880D01*
X162988600Y-75354119D01*
X162971372Y-75179202D01*
X162903293Y-74954773D01*
X162792737Y-74747938D01*
X162643954Y-74566646D01*
X162462661Y-74417863D01*
X162255826Y-74307307D01*
X162031397Y-74239228D01*
X161798000Y-74216240D01*
X161564602Y-74239228D01*
X161340173Y-74307307D01*
X161133338Y-74417863D01*
X160952046Y-74566646D01*
X160803263Y-74747939D01*
X160692707Y-74954774D01*
X160624628Y-75179203D01*
X160607400Y-75354120D01*
X160448600Y-75354120D01*
X160448600Y-75354119D01*
X160431372Y-75179202D01*
X160363293Y-74954773D01*
X160252737Y-74747938D01*
X160103954Y-74566646D01*
X159922661Y-74417863D01*
X159715826Y-74307307D01*
X159491397Y-74239228D01*
X159258000Y-74216240D01*
X159024602Y-74239228D01*
X158800173Y-74307307D01*
X158593338Y-74417863D01*
X158412046Y-74566646D01*
X158263263Y-74747939D01*
X158152707Y-74954774D01*
X158084628Y-75179203D01*
X158067400Y-75354120D01*
X157908600Y-75354120D01*
X157908600Y-75354119D01*
X157891372Y-75179202D01*
X157823293Y-74954773D01*
X157712737Y-74747938D01*
X157563954Y-74566646D01*
X157382661Y-74417863D01*
X157175826Y-74307307D01*
X156951397Y-74239228D01*
X156718000Y-74216240D01*
X156484602Y-74239228D01*
X156260173Y-74307307D01*
X156053338Y-74417863D01*
X155872046Y-74566646D01*
X155723263Y-74747939D01*
X155612707Y-74954774D01*
X155544628Y-75179203D01*
X155527400Y-75354120D01*
X153844600Y-75354120D01*
X153844600Y-75354119D01*
X153827372Y-75179202D01*
X153759293Y-74954773D01*
X153648737Y-74747938D01*
X153499954Y-74566646D01*
X153318661Y-74417863D01*
X153111826Y-74307307D01*
X152887397Y-74239228D01*
X152654000Y-74216240D01*
X152420602Y-74239228D01*
X152196173Y-74307307D01*
X151989338Y-74417863D01*
X151808046Y-74566646D01*
X151659263Y-74747939D01*
X151548707Y-74954774D01*
X151480628Y-75179203D01*
X151463400Y-75354120D01*
X151304600Y-75354120D01*
X151304600Y-75354119D01*
X151287372Y-75179202D01*
X151219293Y-74954773D01*
X151108737Y-74747938D01*
X150959954Y-74566646D01*
X150778661Y-74417863D01*
X150571826Y-74307307D01*
X150347397Y-74239228D01*
X150114000Y-74216240D01*
X149880602Y-74239228D01*
X149656173Y-74307307D01*
X149449338Y-74417863D01*
X149268046Y-74566646D01*
X149119263Y-74747939D01*
X149008707Y-74954774D01*
X148940628Y-75179203D01*
X148923400Y-75354120D01*
X148923400Y-75775881D01*
X148940628Y-75950798D01*
X149008707Y-76175227D01*
X149119264Y-76382062D01*
X149268047Y-76563354D01*
X149449339Y-76712137D01*
X149656174Y-76822693D01*
X149662000Y-76824460D01*
X149662000Y-77536775D01*
X147524096Y-79674681D01*
X147506842Y-79688841D01*
X147454481Y-79752643D01*
X147450358Y-79757667D01*
X147408386Y-79836191D01*
X147382540Y-79921393D01*
X147373813Y-80010000D01*
X147376001Y-80032215D01*
X147376000Y-87232369D01*
X147294165Y-87266266D01*
X147154999Y-87359253D01*
X147154999Y-77889224D01*
X147877911Y-77166313D01*
X147895159Y-77152159D01*
X147951643Y-77083333D01*
X147993614Y-77004810D01*
X148019460Y-76919607D01*
X148026000Y-76853205D01*
X148026000Y-76853204D01*
X148028187Y-76831001D01*
X148027498Y-76824006D01*
X148031827Y-76822693D01*
X148238662Y-76712137D01*
X148419954Y-76563354D01*
X148568737Y-76382061D01*
X148679293Y-76175226D01*
X148747372Y-75950797D01*
X148764600Y-75775880D01*
X148764600Y-75354119D01*
X148747372Y-75179202D01*
X148679293Y-74954773D01*
X148568737Y-74747938D01*
X148419954Y-74566646D01*
X148238661Y-74417863D01*
X148031826Y-74307307D01*
X147807397Y-74239228D01*
X147574000Y-74216240D01*
X147340602Y-74239228D01*
X147116173Y-74307307D01*
X146909338Y-74417863D01*
X146728046Y-74566646D01*
X146579263Y-74747939D01*
X146468707Y-74954774D01*
X146400628Y-75179203D01*
X146383400Y-75354120D01*
X146383400Y-75775881D01*
X146400628Y-75950798D01*
X146468707Y-76175227D01*
X146579264Y-76382062D01*
X146728047Y-76563354D01*
X146909339Y-76712137D01*
X147003375Y-76762401D01*
X146399095Y-77366682D01*
X146381841Y-77380842D01*
X146325357Y-77449668D01*
X146283385Y-77528192D01*
X146257539Y-77613394D01*
X146248812Y-77702001D01*
X146251000Y-77724216D01*
X146250999Y-87677684D01*
X146163398Y-87546579D01*
X146006421Y-87389602D01*
X145821835Y-87266266D01*
X145740000Y-87232369D01*
X145740000Y-76678212D01*
X145879954Y-76563354D01*
X146028737Y-76382061D01*
X146139293Y-76175226D01*
X146207372Y-75950797D01*
X146224600Y-75775880D01*
X146224600Y-75354119D01*
X146207372Y-75179202D01*
X146139293Y-74954773D01*
X146028737Y-74747938D01*
X145879954Y-74566646D01*
X145698661Y-74417863D01*
X145491826Y-74307307D01*
X145267397Y-74239228D01*
X145034000Y-74216240D01*
X144800602Y-74239228D01*
X144576173Y-74307307D01*
X144369338Y-74417863D01*
X144188046Y-74566646D01*
X144039263Y-74747939D01*
X143928707Y-74954774D01*
X143860628Y-75179203D01*
X143843400Y-75354120D01*
X143684600Y-75354120D01*
X143684600Y-75354119D01*
X143667372Y-75179202D01*
X143599293Y-74954773D01*
X143488737Y-74747938D01*
X143339954Y-74566646D01*
X143158661Y-74417863D01*
X142951826Y-74307307D01*
X142727397Y-74239228D01*
X142494000Y-74216240D01*
X142260602Y-74239228D01*
X142036173Y-74307307D01*
X141829338Y-74417863D01*
X141648046Y-74566646D01*
X141499263Y-74747939D01*
X141388707Y-74954774D01*
X141320628Y-75179203D01*
X141303400Y-75354120D01*
X141144600Y-75354120D01*
X141144600Y-75354119D01*
X141127372Y-75179202D01*
X141059293Y-74954773D01*
X140948737Y-74747938D01*
X140799954Y-74566646D01*
X140618661Y-74417863D01*
X140411826Y-74307307D01*
X140187397Y-74239228D01*
X139954000Y-74216240D01*
X139720602Y-74239228D01*
X139496173Y-74307307D01*
X139289338Y-74417863D01*
X139108046Y-74566646D01*
X138959263Y-74747939D01*
X138848707Y-74954774D01*
X138843239Y-74972798D01*
X138829773Y-74917367D01*
X138705954Y-74650679D01*
X138532486Y-74413271D01*
X138316035Y-74214267D01*
X138064919Y-74061314D01*
X137788789Y-73960291D01*
X137773026Y-73957642D01*
X137541000Y-74078783D01*
X137287000Y-74078783D01*
X137054974Y-73957642D01*
X137039211Y-73960291D01*
X136763081Y-74061314D01*
X136511965Y-74214267D01*
X136295514Y-74413271D01*
X136122046Y-74650679D01*
X135998227Y-74917367D01*
X135984761Y-74972798D01*
X135979293Y-74954773D01*
X135868737Y-74747938D01*
X135719954Y-74566646D01*
X135538661Y-74417863D01*
X135331826Y-74307307D01*
X135107397Y-74239228D01*
X134874000Y-74216240D01*
X134640602Y-74239228D01*
X134416173Y-74307307D01*
X134209338Y-74417863D01*
X134028046Y-74566646D01*
X133879263Y-74747939D01*
X133768707Y-74954774D01*
X133700628Y-75179203D01*
X133683400Y-75354120D01*
X133524600Y-75354120D01*
X133524600Y-75354119D01*
X133507372Y-75179202D01*
X133439293Y-74954773D01*
X133328737Y-74747938D01*
X133179954Y-74566646D01*
X132998661Y-74417863D01*
X132791826Y-74307307D01*
X132567397Y-74239228D01*
X132334000Y-74216240D01*
X132100602Y-74239228D01*
X131876173Y-74307307D01*
X131669338Y-74417863D01*
X131488046Y-74566646D01*
X131339263Y-74747939D01*
X131228707Y-74954774D01*
X131160628Y-75179203D01*
X131143400Y-75354120D01*
X130984600Y-75354120D01*
X130984600Y-75354119D01*
X130967372Y-75179202D01*
X130899293Y-74954773D01*
X130788737Y-74747938D01*
X130639954Y-74566646D01*
X130458661Y-74417863D01*
X130251826Y-74307307D01*
X130027397Y-74239228D01*
X129794000Y-74216240D01*
X129560602Y-74239228D01*
X129336173Y-74307307D01*
X129129338Y-74417863D01*
X128948046Y-74566646D01*
X128799263Y-74747939D01*
X128688707Y-74954774D01*
X128620628Y-75179203D01*
X128603400Y-75354120D01*
X128597000Y-75354120D01*
X128597000Y-75332659D01*
X128506345Y-74876905D01*
X128328519Y-74447595D01*
X128070355Y-74061225D01*
X127741775Y-73732645D01*
X127355405Y-73474481D01*
X127240776Y-73427000D01*
X175347487Y-73427000D01*
X176636001Y-74715515D01*
X176636000Y-85959261D01*
X176634056Y-85979000D01*
X176636000Y-85998739D01*
X176636000Y-85998746D01*
X176641817Y-86057805D01*
X176664803Y-86133582D01*
X176702132Y-86203419D01*
X176752368Y-86264632D01*
X176767710Y-86277223D01*
X179176001Y-88685515D01*
X179176001Y-89802227D01*
X179128519Y-89687595D01*
X178870355Y-89301225D01*
X178541775Y-88972645D01*
X178155405Y-88714481D01*
X177726095Y-88536655D01*
X177270341Y-88446000D01*
X176805659Y-88446000D01*
X176349905Y-88536655D01*
X175920595Y-88714481D01*
X175534225Y-88972645D01*
X175205645Y-89301225D01*
X174947481Y-89687595D01*
X174769655Y-90116905D01*
X174679000Y-90572659D01*
X174679000Y-91037341D01*
X174769655Y-91493095D01*
X174947481Y-91922405D01*
X175205645Y-92308775D01*
X175534225Y-92637355D01*
X175920595Y-92895519D01*
X176349905Y-93073345D01*
X176805659Y-93164000D01*
X177270341Y-93164000D01*
X177726095Y-93073345D01*
X178155405Y-92895519D01*
X178541775Y-92637355D01*
X178870355Y-92308775D01*
X179128519Y-91922405D01*
X179176001Y-91807774D01*
X179176000Y-117742225D01*
X179128519Y-117627595D01*
X178870355Y-117241225D01*
X178541775Y-116912645D01*
X178155405Y-116654481D01*
X177726095Y-116476655D01*
X177270341Y-116386000D01*
X176805659Y-116386000D01*
X176349905Y-116476655D01*
X175920595Y-116654481D01*
X175534225Y-116912645D01*
X175205645Y-117241225D01*
X174947481Y-117627595D01*
X174769655Y-118056905D01*
X174679000Y-118512659D01*
X174679000Y-118977341D01*
X174769655Y-119433095D01*
X174947481Y-119862405D01*
X175205645Y-120248775D01*
X175534225Y-120577355D01*
X175920595Y-120835519D01*
X176349905Y-121013345D01*
X176805659Y-121104000D01*
X177270341Y-121104000D01*
X177726095Y-121013345D01*
X178155405Y-120835519D01*
X178541775Y-120577355D01*
X178870355Y-120248775D01*
X179128519Y-119862405D01*
X179176000Y-119747776D01*
X179176000Y-121118486D01*
X176767705Y-123526782D01*
X176752369Y-123539368D01*
X176702133Y-123600580D01*
X176694896Y-123614120D01*
X176664804Y-123670417D01*
X176641817Y-123746195D01*
X176634056Y-123825000D01*
X176636001Y-123844749D01*
X176636000Y-125963000D01*
X125970776Y-125963000D01*
X126085405Y-125915519D01*
X126471775Y-125657355D01*
X126800355Y-125328775D01*
X127058519Y-124942405D01*
X127236345Y-124513095D01*
X127327000Y-124057341D01*
X127327000Y-123614120D01*
X137747400Y-123614120D01*
X137747400Y-124035881D01*
X137764628Y-124210798D01*
X137832707Y-124435227D01*
X137943264Y-124642062D01*
X138092047Y-124823354D01*
X138273339Y-124972137D01*
X138480174Y-125082693D01*
X138704603Y-125150772D01*
X138938000Y-125173760D01*
X139171398Y-125150772D01*
X139395827Y-125082693D01*
X139602662Y-124972137D01*
X139783954Y-124823354D01*
X139932737Y-124642061D01*
X140043293Y-124435226D01*
X140111372Y-124210797D01*
X140128600Y-124035880D01*
X140128600Y-123614120D01*
X140287400Y-123614120D01*
X140287400Y-124035881D01*
X140304628Y-124210798D01*
X140372707Y-124435227D01*
X140483264Y-124642062D01*
X140632047Y-124823354D01*
X140813339Y-124972137D01*
X141020174Y-125082693D01*
X141244603Y-125150772D01*
X141478000Y-125173760D01*
X141711398Y-125150772D01*
X141935827Y-125082693D01*
X142142662Y-124972137D01*
X142323954Y-124823354D01*
X142472737Y-124642061D01*
X142583293Y-124435226D01*
X142651372Y-124210797D01*
X142668600Y-124035880D01*
X142668600Y-123614120D01*
X142827400Y-123614120D01*
X142827400Y-124035881D01*
X142844628Y-124210798D01*
X142912707Y-124435227D01*
X143023264Y-124642062D01*
X143172047Y-124823354D01*
X143353339Y-124972137D01*
X143560174Y-125082693D01*
X143784603Y-125150772D01*
X144018000Y-125173760D01*
X144251398Y-125150772D01*
X144475827Y-125082693D01*
X144682662Y-124972137D01*
X144863954Y-124823354D01*
X145012737Y-124642061D01*
X145123293Y-124435226D01*
X145191372Y-124210797D01*
X145208600Y-124035880D01*
X145208600Y-123614120D01*
X145367400Y-123614120D01*
X145367400Y-124035881D01*
X145384628Y-124210798D01*
X145452707Y-124435227D01*
X145563264Y-124642062D01*
X145712047Y-124823354D01*
X145893339Y-124972137D01*
X146100174Y-125082693D01*
X146324603Y-125150772D01*
X146558000Y-125173760D01*
X146791398Y-125150772D01*
X147015827Y-125082693D01*
X147222662Y-124972137D01*
X147403954Y-124823354D01*
X147552737Y-124642061D01*
X147663293Y-124435226D01*
X147731372Y-124210797D01*
X147748600Y-124035880D01*
X147748600Y-123614119D01*
X147731372Y-123439202D01*
X147663293Y-123214773D01*
X147552737Y-123007938D01*
X147403954Y-122826646D01*
X147222661Y-122677863D01*
X147015826Y-122567307D01*
X146791397Y-122499228D01*
X146558000Y-122476240D01*
X146324602Y-122499228D01*
X146100173Y-122567307D01*
X145893338Y-122677863D01*
X145712046Y-122826646D01*
X145563263Y-123007939D01*
X145452707Y-123214774D01*
X145384628Y-123439203D01*
X145367400Y-123614120D01*
X145208600Y-123614120D01*
X145208600Y-123614119D01*
X145191372Y-123439202D01*
X145123293Y-123214773D01*
X145012737Y-123007938D01*
X144863954Y-122826646D01*
X144682661Y-122677863D01*
X144475826Y-122567307D01*
X144251397Y-122499228D01*
X144018000Y-122476240D01*
X143784602Y-122499228D01*
X143560173Y-122567307D01*
X143353338Y-122677863D01*
X143172046Y-122826646D01*
X143023263Y-123007939D01*
X142912707Y-123214774D01*
X142844628Y-123439203D01*
X142827400Y-123614120D01*
X142668600Y-123614120D01*
X142668600Y-123614119D01*
X142651372Y-123439202D01*
X142583293Y-123214773D01*
X142472737Y-123007938D01*
X142323954Y-122826646D01*
X142142661Y-122677863D01*
X141935826Y-122567307D01*
X141711397Y-122499228D01*
X141478000Y-122476240D01*
X141244602Y-122499228D01*
X141020173Y-122567307D01*
X140813338Y-122677863D01*
X140632046Y-122826646D01*
X140483263Y-123007939D01*
X140372707Y-123214774D01*
X140304628Y-123439203D01*
X140287400Y-123614120D01*
X140128600Y-123614120D01*
X140128600Y-123614119D01*
X140111372Y-123439202D01*
X140043293Y-123214773D01*
X139932737Y-123007938D01*
X139783954Y-122826646D01*
X139602661Y-122677863D01*
X139395826Y-122567307D01*
X139171397Y-122499228D01*
X138938000Y-122476240D01*
X138704602Y-122499228D01*
X138480173Y-122567307D01*
X138273338Y-122677863D01*
X138092046Y-122826646D01*
X137943263Y-123007939D01*
X137832707Y-123214774D01*
X137764628Y-123439203D01*
X137747400Y-123614120D01*
X127327000Y-123614120D01*
X127327000Y-123592659D01*
X127236345Y-123136905D01*
X127058519Y-122707595D01*
X126800355Y-122321225D01*
X126471775Y-121992645D01*
X126085405Y-121734481D01*
X125656095Y-121556655D01*
X125200341Y-121466000D01*
X124735659Y-121466000D01*
X124279905Y-121556655D01*
X123850595Y-121734481D01*
X123464225Y-121992645D01*
X123135645Y-122321225D01*
X122877481Y-122707595D01*
X122699655Y-123136905D01*
X122609000Y-123592659D01*
X122609000Y-124057341D01*
X122699655Y-124513095D01*
X122877481Y-124942405D01*
X123135645Y-125328775D01*
X123464225Y-125657355D01*
X123850595Y-125915519D01*
X123965224Y-125963000D01*
X111400000Y-125963000D01*
X111400000Y-120007000D01*
X114177928Y-120007000D01*
X114190188Y-120131482D01*
X114226498Y-120251180D01*
X114285463Y-120361494D01*
X114364815Y-120458185D01*
X114461506Y-120537537D01*
X114571820Y-120596502D01*
X114691518Y-120632812D01*
X114816000Y-120645072D01*
X115792250Y-120642000D01*
X115951000Y-120483250D01*
X115951000Y-118872000D01*
X116205000Y-118872000D01*
X116205000Y-120483250D01*
X116363750Y-120642000D01*
X117340000Y-120645072D01*
X117464482Y-120632812D01*
X117584180Y-120596502D01*
X117694494Y-120537537D01*
X117791185Y-120458185D01*
X117870537Y-120361494D01*
X117929502Y-120251180D01*
X117965812Y-120131482D01*
X117978072Y-120007000D01*
X117975000Y-119030750D01*
X117816250Y-118872000D01*
X116205000Y-118872000D01*
X115951000Y-118872000D01*
X114339750Y-118872000D01*
X114181000Y-119030750D01*
X114177928Y-120007000D01*
X111400000Y-120007000D01*
X111400000Y-117483000D01*
X114177928Y-117483000D01*
X114181000Y-118459250D01*
X114339750Y-118618000D01*
X115951000Y-118618000D01*
X115951000Y-117006750D01*
X116205000Y-117006750D01*
X116205000Y-118618000D01*
X117816250Y-118618000D01*
X117975000Y-118459250D01*
X117978072Y-117483000D01*
X129727418Y-117483000D01*
X129727418Y-120007000D01*
X129733732Y-120071103D01*
X129752430Y-120132743D01*
X129782794Y-120189550D01*
X129823657Y-120239343D01*
X129873450Y-120280206D01*
X129930257Y-120310570D01*
X129991897Y-120329268D01*
X130056000Y-120335582D01*
X132580000Y-120335582D01*
X132644103Y-120329268D01*
X132705743Y-120310570D01*
X132762550Y-120280206D01*
X132812343Y-120239343D01*
X132853206Y-120189550D01*
X132883570Y-120132743D01*
X132902268Y-120071103D01*
X132908582Y-120007000D01*
X132908582Y-119191447D01*
X132918607Y-119190460D01*
X133003810Y-119164614D01*
X133082333Y-119122643D01*
X133151159Y-119066159D01*
X133207643Y-118997333D01*
X133249614Y-118918810D01*
X133275460Y-118833607D01*
X133284187Y-118745000D01*
X133275460Y-118656393D01*
X133249614Y-118571190D01*
X133207643Y-118492667D01*
X133151159Y-118423841D01*
X133082333Y-118367357D01*
X133003810Y-118325386D01*
X132918607Y-118299540D01*
X132908582Y-118298553D01*
X132908582Y-117483000D01*
X132902268Y-117418897D01*
X132883570Y-117357257D01*
X132853206Y-117300450D01*
X132812343Y-117250657D01*
X132762550Y-117209794D01*
X132705743Y-117179430D01*
X132644103Y-117160732D01*
X132580000Y-117154418D01*
X130056000Y-117154418D01*
X129991897Y-117160732D01*
X129930257Y-117179430D01*
X129873450Y-117209794D01*
X129823657Y-117250657D01*
X129782794Y-117300450D01*
X129752430Y-117357257D01*
X129733732Y-117418897D01*
X129727418Y-117483000D01*
X117978072Y-117483000D01*
X117965812Y-117358518D01*
X117929502Y-117238820D01*
X117870537Y-117128506D01*
X117791185Y-117031815D01*
X117694494Y-116952463D01*
X117584180Y-116893498D01*
X117464482Y-116857188D01*
X117340000Y-116844928D01*
X116363750Y-116848000D01*
X116205000Y-117006750D01*
X115951000Y-117006750D01*
X115792250Y-116848000D01*
X114816000Y-116844928D01*
X114691518Y-116857188D01*
X114571820Y-116893498D01*
X114461506Y-116952463D01*
X114364815Y-117031815D01*
X114285463Y-117128506D01*
X114226498Y-117238820D01*
X114190188Y-117358518D01*
X114177928Y-117483000D01*
X111400000Y-117483000D01*
X111400000Y-84447000D01*
X114177928Y-84447000D01*
X114190188Y-84571482D01*
X114226498Y-84691180D01*
X114285463Y-84801494D01*
X114364815Y-84898185D01*
X114461506Y-84977537D01*
X114571820Y-85036502D01*
X114691518Y-85072812D01*
X114816000Y-85085072D01*
X115792250Y-85082000D01*
X115951000Y-84923250D01*
X115951000Y-83312000D01*
X116205000Y-83312000D01*
X116205000Y-84923250D01*
X116363750Y-85082000D01*
X117340000Y-85085072D01*
X117464482Y-85072812D01*
X117584180Y-85036502D01*
X117694494Y-84977537D01*
X117791185Y-84898185D01*
X117870537Y-84801494D01*
X117929502Y-84691180D01*
X117965812Y-84571482D01*
X117978072Y-84447000D01*
X117975000Y-83470750D01*
X117816250Y-83312000D01*
X116205000Y-83312000D01*
X115951000Y-83312000D01*
X114339750Y-83312000D01*
X114181000Y-83470750D01*
X114177928Y-84447000D01*
X111400000Y-84447000D01*
X111400000Y-81923000D01*
X114177928Y-81923000D01*
X114181000Y-82899250D01*
X114339750Y-83058000D01*
X115951000Y-83058000D01*
X115951000Y-81446750D01*
X116205000Y-81446750D01*
X116205000Y-83058000D01*
X117816250Y-83058000D01*
X117975000Y-82899250D01*
X117978072Y-81923000D01*
X129727418Y-81923000D01*
X129727418Y-84447000D01*
X129733732Y-84511103D01*
X129752430Y-84572743D01*
X129782794Y-84629550D01*
X129823657Y-84679343D01*
X129873450Y-84720206D01*
X129930257Y-84750570D01*
X129991897Y-84769268D01*
X130056000Y-84775582D01*
X130866000Y-84775582D01*
X130866001Y-105870385D01*
X130863813Y-105892600D01*
X130872540Y-105981207D01*
X130898386Y-106066409D01*
X130898387Y-106066410D01*
X130940358Y-106144933D01*
X130996842Y-106213759D01*
X131014096Y-106227919D01*
X147995578Y-123209403D01*
X147992707Y-123214774D01*
X147924628Y-123439203D01*
X147907400Y-123614120D01*
X147907400Y-124035881D01*
X147924628Y-124210798D01*
X147992707Y-124435227D01*
X148103264Y-124642062D01*
X148252047Y-124823354D01*
X148433339Y-124972137D01*
X148640174Y-125082693D01*
X148864603Y-125150772D01*
X149098000Y-125173760D01*
X149331398Y-125150772D01*
X149555827Y-125082693D01*
X149762662Y-124972137D01*
X149943954Y-124823354D01*
X150092737Y-124642061D01*
X150203293Y-124435226D01*
X150208761Y-124417202D01*
X150222227Y-124472633D01*
X150346046Y-124739321D01*
X150519514Y-124976729D01*
X150735965Y-125175733D01*
X150987081Y-125328686D01*
X151263211Y-125429709D01*
X151278974Y-125432358D01*
X151511000Y-125311217D01*
X151511000Y-123952000D01*
X151765000Y-123952000D01*
X151765000Y-125311217D01*
X151997026Y-125432358D01*
X152012789Y-125429709D01*
X152288919Y-125328686D01*
X152540035Y-125175733D01*
X152756486Y-124976729D01*
X152908000Y-124769367D01*
X153059514Y-124976729D01*
X153275965Y-125175733D01*
X153527081Y-125328686D01*
X153803211Y-125429709D01*
X153818974Y-125432358D01*
X154051000Y-125311217D01*
X154051000Y-123952000D01*
X151765000Y-123952000D01*
X151511000Y-123952000D01*
X151491000Y-123952000D01*
X151491000Y-123698000D01*
X151511000Y-123698000D01*
X151511000Y-122338783D01*
X151765000Y-122338783D01*
X151765000Y-123698000D01*
X154051000Y-123698000D01*
X154051000Y-122338783D01*
X154305000Y-122338783D01*
X154305000Y-123698000D01*
X154325000Y-123698000D01*
X154325000Y-123952000D01*
X154305000Y-123952000D01*
X154305000Y-125311217D01*
X154537026Y-125432358D01*
X154552789Y-125429709D01*
X154828919Y-125328686D01*
X155080035Y-125175733D01*
X155296486Y-124976729D01*
X155469954Y-124739321D01*
X155593773Y-124472633D01*
X155607239Y-124417202D01*
X155612707Y-124435227D01*
X155723264Y-124642062D01*
X155872047Y-124823354D01*
X156053339Y-124972137D01*
X156260174Y-125082693D01*
X156484603Y-125150772D01*
X156718000Y-125173760D01*
X156951398Y-125150772D01*
X157175827Y-125082693D01*
X157382662Y-124972137D01*
X157563954Y-124823354D01*
X157712737Y-124642061D01*
X157823293Y-124435226D01*
X157891372Y-124210797D01*
X157908600Y-124035880D01*
X157908600Y-123614120D01*
X160607400Y-123614120D01*
X160607400Y-124035881D01*
X160624628Y-124210798D01*
X160692707Y-124435227D01*
X160803264Y-124642062D01*
X160952047Y-124823354D01*
X161133339Y-124972137D01*
X161340174Y-125082693D01*
X161564603Y-125150772D01*
X161798000Y-125173760D01*
X162031398Y-125150772D01*
X162255827Y-125082693D01*
X162462662Y-124972137D01*
X162643954Y-124823354D01*
X162792737Y-124642061D01*
X162903293Y-124435226D01*
X162971372Y-124210797D01*
X162988600Y-124035880D01*
X162988600Y-123614120D01*
X163147400Y-123614120D01*
X163147400Y-124035881D01*
X163164628Y-124210798D01*
X163232707Y-124435227D01*
X163343264Y-124642062D01*
X163492047Y-124823354D01*
X163673339Y-124972137D01*
X163880174Y-125082693D01*
X164104603Y-125150772D01*
X164338000Y-125173760D01*
X164571398Y-125150772D01*
X164795827Y-125082693D01*
X165002662Y-124972137D01*
X165183954Y-124823354D01*
X165332737Y-124642061D01*
X165443293Y-124435226D01*
X165511372Y-124210797D01*
X165528600Y-124035880D01*
X165528600Y-123614120D01*
X165687400Y-123614120D01*
X165687400Y-124035881D01*
X165704628Y-124210798D01*
X165772707Y-124435227D01*
X165883264Y-124642062D01*
X166032047Y-124823354D01*
X166213339Y-124972137D01*
X166420174Y-125082693D01*
X166644603Y-125150772D01*
X166878000Y-125173760D01*
X167111398Y-125150772D01*
X167335827Y-125082693D01*
X167542662Y-124972137D01*
X167723954Y-124823354D01*
X167872737Y-124642061D01*
X167983293Y-124435226D01*
X168051372Y-124210797D01*
X168068600Y-124035880D01*
X168068600Y-123614120D01*
X168227400Y-123614120D01*
X168227400Y-124035881D01*
X168244628Y-124210798D01*
X168312707Y-124435227D01*
X168423264Y-124642062D01*
X168572047Y-124823354D01*
X168753339Y-124972137D01*
X168960174Y-125082693D01*
X169184603Y-125150772D01*
X169418000Y-125173760D01*
X169651398Y-125150772D01*
X169875827Y-125082693D01*
X170082662Y-124972137D01*
X170263954Y-124823354D01*
X170412737Y-124642061D01*
X170523293Y-124435226D01*
X170591372Y-124210797D01*
X170608600Y-124035880D01*
X170608600Y-123614120D01*
X170767400Y-123614120D01*
X170767400Y-124035881D01*
X170784628Y-124210798D01*
X170852707Y-124435227D01*
X170963264Y-124642062D01*
X171112047Y-124823354D01*
X171293339Y-124972137D01*
X171500174Y-125082693D01*
X171724603Y-125150772D01*
X171958000Y-125173760D01*
X172191398Y-125150772D01*
X172415827Y-125082693D01*
X172622662Y-124972137D01*
X172803954Y-124823354D01*
X172952737Y-124642061D01*
X173063293Y-124435226D01*
X173131372Y-124210797D01*
X173148600Y-124035880D01*
X173148600Y-123614120D01*
X173307400Y-123614120D01*
X173307400Y-124035881D01*
X173324628Y-124210798D01*
X173392707Y-124435227D01*
X173503264Y-124642062D01*
X173652047Y-124823354D01*
X173833339Y-124972137D01*
X174040174Y-125082693D01*
X174264603Y-125150772D01*
X174498000Y-125173760D01*
X174731398Y-125150772D01*
X174955827Y-125082693D01*
X175162662Y-124972137D01*
X175343954Y-124823354D01*
X175492737Y-124642061D01*
X175603293Y-124435226D01*
X175671372Y-124210797D01*
X175688600Y-124035880D01*
X175688600Y-123614119D01*
X175671372Y-123439202D01*
X175603293Y-123214773D01*
X175492737Y-123007938D01*
X175343954Y-122826646D01*
X175162661Y-122677863D01*
X174955826Y-122567307D01*
X174731397Y-122499228D01*
X174498000Y-122476240D01*
X174264602Y-122499228D01*
X174040173Y-122567307D01*
X173833338Y-122677863D01*
X173652046Y-122826646D01*
X173503263Y-123007939D01*
X173392707Y-123214774D01*
X173324628Y-123439203D01*
X173307400Y-123614120D01*
X173148600Y-123614120D01*
X173148600Y-123614119D01*
X173131372Y-123439202D01*
X173063293Y-123214773D01*
X172952737Y-123007938D01*
X172803954Y-122826646D01*
X172622661Y-122677863D01*
X172415826Y-122567307D01*
X172191397Y-122499228D01*
X171958000Y-122476240D01*
X171724602Y-122499228D01*
X171500173Y-122567307D01*
X171293338Y-122677863D01*
X171112046Y-122826646D01*
X170963263Y-123007939D01*
X170852707Y-123214774D01*
X170784628Y-123439203D01*
X170767400Y-123614120D01*
X170608600Y-123614120D01*
X170608600Y-123614119D01*
X170591372Y-123439202D01*
X170523293Y-123214773D01*
X170412737Y-123007938D01*
X170263954Y-122826646D01*
X170082661Y-122677863D01*
X169875826Y-122567307D01*
X169651397Y-122499228D01*
X169418000Y-122476240D01*
X169184602Y-122499228D01*
X168960173Y-122567307D01*
X168753338Y-122677863D01*
X168572046Y-122826646D01*
X168423263Y-123007939D01*
X168312707Y-123214774D01*
X168244628Y-123439203D01*
X168227400Y-123614120D01*
X168068600Y-123614120D01*
X168068600Y-123614119D01*
X168051372Y-123439202D01*
X167983293Y-123214773D01*
X167872737Y-123007938D01*
X167723954Y-122826646D01*
X167542661Y-122677863D01*
X167335826Y-122567307D01*
X167111397Y-122499228D01*
X166878000Y-122476240D01*
X166644602Y-122499228D01*
X166420173Y-122567307D01*
X166213338Y-122677863D01*
X166032046Y-122826646D01*
X165883263Y-123007939D01*
X165772707Y-123214774D01*
X165704628Y-123439203D01*
X165687400Y-123614120D01*
X165528600Y-123614120D01*
X165528600Y-123614119D01*
X165511372Y-123439202D01*
X165443293Y-123214773D01*
X165332737Y-123007938D01*
X165183954Y-122826646D01*
X165002661Y-122677863D01*
X164795826Y-122567307D01*
X164571397Y-122499228D01*
X164338000Y-122476240D01*
X164104602Y-122499228D01*
X163880173Y-122567307D01*
X163673338Y-122677863D01*
X163492046Y-122826646D01*
X163343263Y-123007939D01*
X163232707Y-123214774D01*
X163164628Y-123439203D01*
X163147400Y-123614120D01*
X162988600Y-123614120D01*
X162988600Y-123614119D01*
X162971372Y-123439202D01*
X162903293Y-123214773D01*
X162792737Y-123007938D01*
X162643954Y-122826646D01*
X162462661Y-122677863D01*
X162255826Y-122567307D01*
X162031397Y-122499228D01*
X161798000Y-122476240D01*
X161564602Y-122499228D01*
X161340173Y-122567307D01*
X161133338Y-122677863D01*
X160952046Y-122826646D01*
X160803263Y-123007939D01*
X160692707Y-123214774D01*
X160624628Y-123439203D01*
X160607400Y-123614120D01*
X157908600Y-123614120D01*
X157908600Y-123614119D01*
X157891372Y-123439202D01*
X157823293Y-123214773D01*
X157712737Y-123007938D01*
X157563954Y-122826646D01*
X157382661Y-122677863D01*
X157175826Y-122567307D01*
X156951397Y-122499228D01*
X156718000Y-122476240D01*
X156484602Y-122499228D01*
X156260173Y-122567307D01*
X156053338Y-122677863D01*
X155872046Y-122826646D01*
X155723263Y-123007939D01*
X155612707Y-123214774D01*
X155607239Y-123232798D01*
X155593773Y-123177367D01*
X155469954Y-122910679D01*
X155296486Y-122673271D01*
X155080035Y-122474267D01*
X154828919Y-122321314D01*
X154552789Y-122220291D01*
X154537026Y-122217642D01*
X154305000Y-122338783D01*
X154051000Y-122338783D01*
X153818974Y-122217642D01*
X153803211Y-122220291D01*
X153527081Y-122321314D01*
X153275965Y-122474267D01*
X153059514Y-122673271D01*
X152908000Y-122880633D01*
X152756486Y-122673271D01*
X152540035Y-122474267D01*
X152288919Y-122321314D01*
X152012789Y-122220291D01*
X151997026Y-122217642D01*
X151765000Y-122338783D01*
X151511000Y-122338783D01*
X151278974Y-122217642D01*
X151263211Y-122220291D01*
X150987081Y-122321314D01*
X150735965Y-122474267D01*
X150519514Y-122673271D01*
X150346046Y-122910679D01*
X150222227Y-123177367D01*
X150208761Y-123232798D01*
X150203293Y-123214773D01*
X150092737Y-123007938D01*
X149943954Y-122826646D01*
X149762661Y-122677863D01*
X149555826Y-122567307D01*
X149331397Y-122499228D01*
X149098000Y-122476240D01*
X148864602Y-122499228D01*
X148640173Y-122567307D01*
X148634803Y-122570178D01*
X132027767Y-105963143D01*
X149406000Y-105963143D01*
X149406000Y-106177657D01*
X149447850Y-106388050D01*
X149529941Y-106586235D01*
X149649119Y-106764597D01*
X149800803Y-106916281D01*
X149979165Y-107035459D01*
X150043001Y-107061901D01*
X150043000Y-118341795D01*
X150040813Y-118364000D01*
X150043000Y-118386204D01*
X150049540Y-118452606D01*
X150075386Y-118537809D01*
X150117357Y-118616332D01*
X150173841Y-118685159D01*
X150191100Y-118699323D01*
X151556685Y-120064910D01*
X151570841Y-120082159D01*
X151639667Y-120138643D01*
X151718190Y-120180614D01*
X151783562Y-120200444D01*
X151803392Y-120206460D01*
X151891999Y-120215187D01*
X151914204Y-120213000D01*
X153743288Y-120213000D01*
X153778311Y-120248023D01*
X153881004Y-120316640D01*
X153995111Y-120363905D01*
X154116246Y-120388000D01*
X154239754Y-120388000D01*
X154360889Y-120363905D01*
X154474996Y-120316640D01*
X154577689Y-120248023D01*
X154665023Y-120160689D01*
X154733640Y-120057996D01*
X154780905Y-119943889D01*
X154805000Y-119822754D01*
X154805000Y-119699246D01*
X154780905Y-119578111D01*
X154733640Y-119464004D01*
X154665023Y-119361311D01*
X154577689Y-119273977D01*
X154474996Y-119205360D01*
X154360889Y-119158095D01*
X154239754Y-119134000D01*
X154116246Y-119134000D01*
X153995111Y-119158095D01*
X153881004Y-119205360D01*
X153778311Y-119273977D01*
X153743288Y-119309000D01*
X152079225Y-119309000D01*
X150947000Y-118176777D01*
X150947000Y-107061900D01*
X151010835Y-107035459D01*
X151189197Y-106916281D01*
X151340881Y-106764597D01*
X151460059Y-106586235D01*
X151542150Y-106388050D01*
X151584000Y-106177657D01*
X151584000Y-105963143D01*
X151542150Y-105752750D01*
X151460059Y-105554565D01*
X151340881Y-105376203D01*
X151189197Y-105224519D01*
X151010835Y-105105341D01*
X150812650Y-105023250D01*
X150602257Y-104981400D01*
X150387743Y-104981400D01*
X150177350Y-105023250D01*
X149979165Y-105105341D01*
X149800803Y-105224519D01*
X149649119Y-105376203D01*
X149529941Y-105554565D01*
X149447850Y-105752750D01*
X149406000Y-105963143D01*
X132027767Y-105963143D01*
X131770000Y-105705377D01*
X131770000Y-100854000D01*
X139081000Y-100854000D01*
X139081000Y-101076000D01*
X139124310Y-101293734D01*
X139209266Y-101498835D01*
X139332602Y-101683421D01*
X139489579Y-101840398D01*
X139674165Y-101963734D01*
X139879266Y-102048690D01*
X140097000Y-102092000D01*
X140319000Y-102092000D01*
X140536734Y-102048690D01*
X140741835Y-101963734D01*
X140926421Y-101840398D01*
X141083398Y-101683421D01*
X141206734Y-101498835D01*
X141291690Y-101293734D01*
X141335000Y-101076000D01*
X141335000Y-100854000D01*
X141621000Y-100854000D01*
X141621000Y-101076000D01*
X141664310Y-101293734D01*
X141749266Y-101498835D01*
X141872602Y-101683421D01*
X142029579Y-101840398D01*
X142214165Y-101963734D01*
X142419266Y-102048690D01*
X142637000Y-102092000D01*
X142859000Y-102092000D01*
X143076734Y-102048690D01*
X143281835Y-101963734D01*
X143466421Y-101840398D01*
X143623398Y-101683421D01*
X143746734Y-101498835D01*
X143831690Y-101293734D01*
X143875000Y-101076000D01*
X143875000Y-100854000D01*
X144161000Y-100854000D01*
X144161000Y-101076000D01*
X144204310Y-101293734D01*
X144289266Y-101498835D01*
X144412602Y-101683421D01*
X144569579Y-101840398D01*
X144754165Y-101963734D01*
X144959266Y-102048690D01*
X145177000Y-102092000D01*
X145399000Y-102092000D01*
X145616734Y-102048690D01*
X145821835Y-101963734D01*
X146006421Y-101840398D01*
X146163398Y-101683421D01*
X146286734Y-101498835D01*
X146371690Y-101293734D01*
X146415000Y-101076000D01*
X146415000Y-100854000D01*
X146701000Y-100854000D01*
X146701000Y-101076000D01*
X146744310Y-101293734D01*
X146829266Y-101498835D01*
X146952602Y-101683421D01*
X147109579Y-101840398D01*
X147294165Y-101963734D01*
X147499266Y-102048690D01*
X147717000Y-102092000D01*
X147939000Y-102092000D01*
X148156734Y-102048690D01*
X148361835Y-101963734D01*
X148546421Y-101840398D01*
X148703398Y-101683421D01*
X148826734Y-101498835D01*
X148911690Y-101293734D01*
X148955000Y-101076000D01*
X148955000Y-100854000D01*
X149241000Y-100854000D01*
X149241000Y-101076000D01*
X149284310Y-101293734D01*
X149369266Y-101498835D01*
X149492602Y-101683421D01*
X149649579Y-101840398D01*
X149834165Y-101963734D01*
X150039266Y-102048690D01*
X150257000Y-102092000D01*
X150479000Y-102092000D01*
X150696734Y-102048690D01*
X150901835Y-101963734D01*
X151086421Y-101840398D01*
X151243398Y-101683421D01*
X151366734Y-101498835D01*
X151451690Y-101293734D01*
X151495000Y-101076000D01*
X151495000Y-100854000D01*
X151781000Y-100854000D01*
X151781000Y-101076000D01*
X151824310Y-101293734D01*
X151909266Y-101498835D01*
X152032602Y-101683421D01*
X152189579Y-101840398D01*
X152374165Y-101963734D01*
X152579266Y-102048690D01*
X152797000Y-102092000D01*
X153019000Y-102092000D01*
X153236734Y-102048690D01*
X153441835Y-101963734D01*
X153626421Y-101840398D01*
X153783398Y-101683421D01*
X153906734Y-101498835D01*
X153991690Y-101293734D01*
X154035000Y-101076000D01*
X154035000Y-100854000D01*
X154321000Y-100854000D01*
X154321000Y-101076000D01*
X154364310Y-101293734D01*
X154449266Y-101498835D01*
X154572602Y-101683421D01*
X154729579Y-101840398D01*
X154914165Y-101963734D01*
X155119266Y-102048690D01*
X155337000Y-102092000D01*
X155559000Y-102092000D01*
X155776734Y-102048690D01*
X155981835Y-101963734D01*
X156166421Y-101840398D01*
X156323398Y-101683421D01*
X156446734Y-101498835D01*
X156531690Y-101293734D01*
X156575000Y-101076000D01*
X156575000Y-100854000D01*
X156861000Y-100854000D01*
X156861000Y-101076000D01*
X156904310Y-101293734D01*
X156989266Y-101498835D01*
X157112602Y-101683421D01*
X157269579Y-101840398D01*
X157454165Y-101963734D01*
X157659266Y-102048690D01*
X157877000Y-102092000D01*
X158099000Y-102092000D01*
X158316734Y-102048690D01*
X158521835Y-101963734D01*
X158706421Y-101840398D01*
X158863398Y-101683421D01*
X158986734Y-101498835D01*
X159071690Y-101293734D01*
X159115000Y-101076000D01*
X159115000Y-100854000D01*
X159401000Y-100854000D01*
X159401000Y-101076000D01*
X159444310Y-101293734D01*
X159529266Y-101498835D01*
X159652602Y-101683421D01*
X159809579Y-101840398D01*
X159994165Y-101963734D01*
X160199266Y-102048690D01*
X160417000Y-102092000D01*
X160639000Y-102092000D01*
X160856734Y-102048690D01*
X161061835Y-101963734D01*
X161070862Y-101957702D01*
X162254903Y-101957702D01*
X162326486Y-102201671D01*
X162581996Y-102322571D01*
X162856184Y-102391300D01*
X163138512Y-102405217D01*
X163418130Y-102363787D01*
X163684292Y-102268603D01*
X163809514Y-102201671D01*
X163881097Y-101957702D01*
X163068000Y-101144605D01*
X162254903Y-101957702D01*
X161070862Y-101957702D01*
X161246421Y-101840398D01*
X161403398Y-101683421D01*
X161526734Y-101498835D01*
X161611690Y-101293734D01*
X161642840Y-101137133D01*
X161669213Y-101315130D01*
X161764397Y-101581292D01*
X161831329Y-101706514D01*
X162075298Y-101778097D01*
X162888395Y-100965000D01*
X163247605Y-100965000D01*
X164060702Y-101778097D01*
X164304671Y-101706514D01*
X164425571Y-101451004D01*
X164494300Y-101176816D01*
X164508217Y-100894488D01*
X164466787Y-100614870D01*
X164371603Y-100348708D01*
X164304671Y-100223486D01*
X164060702Y-100151903D01*
X163247605Y-100965000D01*
X162888395Y-100965000D01*
X162075298Y-100151903D01*
X161831329Y-100223486D01*
X161710429Y-100478996D01*
X161641700Y-100753184D01*
X161640359Y-100780393D01*
X161611690Y-100636266D01*
X161526734Y-100431165D01*
X161403398Y-100246579D01*
X161246421Y-100089602D01*
X161070863Y-99972298D01*
X162254903Y-99972298D01*
X163068000Y-100785395D01*
X163881097Y-99972298D01*
X163809514Y-99728329D01*
X163554004Y-99607429D01*
X163279816Y-99538700D01*
X162997488Y-99524783D01*
X162717870Y-99566213D01*
X162451708Y-99661397D01*
X162326486Y-99728329D01*
X162254903Y-99972298D01*
X161070863Y-99972298D01*
X161061835Y-99966266D01*
X160856734Y-99881310D01*
X160639000Y-99838000D01*
X160417000Y-99838000D01*
X160199266Y-99881310D01*
X159994165Y-99966266D01*
X159809579Y-100089602D01*
X159652602Y-100246579D01*
X159529266Y-100431165D01*
X159444310Y-100636266D01*
X159401000Y-100854000D01*
X159115000Y-100854000D01*
X159071690Y-100636266D01*
X158986734Y-100431165D01*
X158863398Y-100246579D01*
X158706421Y-100089602D01*
X158521835Y-99966266D01*
X158316734Y-99881310D01*
X158099000Y-99838000D01*
X157877000Y-99838000D01*
X157659266Y-99881310D01*
X157454165Y-99966266D01*
X157269579Y-100089602D01*
X157112602Y-100246579D01*
X156989266Y-100431165D01*
X156904310Y-100636266D01*
X156861000Y-100854000D01*
X156575000Y-100854000D01*
X156531690Y-100636266D01*
X156446734Y-100431165D01*
X156323398Y-100246579D01*
X156166421Y-100089602D01*
X155981835Y-99966266D01*
X155776734Y-99881310D01*
X155559000Y-99838000D01*
X155337000Y-99838000D01*
X155119266Y-99881310D01*
X154914165Y-99966266D01*
X154729579Y-100089602D01*
X154572602Y-100246579D01*
X154449266Y-100431165D01*
X154364310Y-100636266D01*
X154321000Y-100854000D01*
X154035000Y-100854000D01*
X153991690Y-100636266D01*
X153906734Y-100431165D01*
X153783398Y-100246579D01*
X153626421Y-100089602D01*
X153441835Y-99966266D01*
X153236734Y-99881310D01*
X153019000Y-99838000D01*
X152797000Y-99838000D01*
X152579266Y-99881310D01*
X152374165Y-99966266D01*
X152189579Y-100089602D01*
X152032602Y-100246579D01*
X151909266Y-100431165D01*
X151824310Y-100636266D01*
X151781000Y-100854000D01*
X151495000Y-100854000D01*
X151451690Y-100636266D01*
X151366734Y-100431165D01*
X151243398Y-100246579D01*
X151086421Y-100089602D01*
X150901835Y-99966266D01*
X150696734Y-99881310D01*
X150479000Y-99838000D01*
X150257000Y-99838000D01*
X150039266Y-99881310D01*
X149834165Y-99966266D01*
X149649579Y-100089602D01*
X149492602Y-100246579D01*
X149369266Y-100431165D01*
X149284310Y-100636266D01*
X149241000Y-100854000D01*
X148955000Y-100854000D01*
X148911690Y-100636266D01*
X148826734Y-100431165D01*
X148703398Y-100246579D01*
X148546421Y-100089602D01*
X148361835Y-99966266D01*
X148156734Y-99881310D01*
X147939000Y-99838000D01*
X147717000Y-99838000D01*
X147499266Y-99881310D01*
X147294165Y-99966266D01*
X147109579Y-100089602D01*
X146952602Y-100246579D01*
X146829266Y-100431165D01*
X146744310Y-100636266D01*
X146701000Y-100854000D01*
X146415000Y-100854000D01*
X146371690Y-100636266D01*
X146286734Y-100431165D01*
X146163398Y-100246579D01*
X146006421Y-100089602D01*
X145821835Y-99966266D01*
X145616734Y-99881310D01*
X145399000Y-99838000D01*
X145177000Y-99838000D01*
X144959266Y-99881310D01*
X144754165Y-99966266D01*
X144569579Y-100089602D01*
X144412602Y-100246579D01*
X144289266Y-100431165D01*
X144204310Y-100636266D01*
X144161000Y-100854000D01*
X143875000Y-100854000D01*
X143831690Y-100636266D01*
X143746734Y-100431165D01*
X143623398Y-100246579D01*
X143466421Y-100089602D01*
X143281835Y-99966266D01*
X143076734Y-99881310D01*
X142859000Y-99838000D01*
X142637000Y-99838000D01*
X142419266Y-99881310D01*
X142214165Y-99966266D01*
X142029579Y-100089602D01*
X141872602Y-100246579D01*
X141749266Y-100431165D01*
X141664310Y-100636266D01*
X141621000Y-100854000D01*
X141335000Y-100854000D01*
X141291690Y-100636266D01*
X141206734Y-100431165D01*
X141083398Y-100246579D01*
X140926421Y-100089602D01*
X140741835Y-99966266D01*
X140536734Y-99881310D01*
X140319000Y-99838000D01*
X140097000Y-99838000D01*
X139879266Y-99881310D01*
X139674165Y-99966266D01*
X139489579Y-100089602D01*
X139332602Y-100246579D01*
X139209266Y-100431165D01*
X139124310Y-100636266D01*
X139081000Y-100854000D01*
X131770000Y-100854000D01*
X131770000Y-95315246D01*
X170569000Y-95315246D01*
X170569000Y-95438754D01*
X170593095Y-95559889D01*
X170640360Y-95673996D01*
X170708977Y-95776689D01*
X170744000Y-95811712D01*
X170744001Y-101140785D01*
X170741813Y-101163000D01*
X170750540Y-101251607D01*
X170776386Y-101336809D01*
X170776387Y-101336810D01*
X170818358Y-101415333D01*
X170874842Y-101484159D01*
X170892096Y-101498319D01*
X172899418Y-103505642D01*
X172899418Y-104695000D01*
X172905732Y-104759103D01*
X172924430Y-104820743D01*
X172954794Y-104877550D01*
X172995657Y-104927343D01*
X173045450Y-104968206D01*
X173102257Y-104998570D01*
X173163897Y-105017268D01*
X173228000Y-105023582D01*
X178308000Y-105023582D01*
X178372103Y-105017268D01*
X178433743Y-104998570D01*
X178490550Y-104968206D01*
X178540343Y-104927343D01*
X178581206Y-104877550D01*
X178611570Y-104820743D01*
X178630268Y-104759103D01*
X178636582Y-104695000D01*
X178636582Y-103195000D01*
X178630268Y-103130897D01*
X178611570Y-103069257D01*
X178581206Y-103012450D01*
X178540343Y-102962657D01*
X178490550Y-102921794D01*
X178433743Y-102891430D01*
X178372103Y-102872732D01*
X178308000Y-102866418D01*
X173538642Y-102866418D01*
X171648000Y-100975777D01*
X171648000Y-95897000D01*
X172899418Y-95897000D01*
X172899418Y-96195000D01*
X172905732Y-96259103D01*
X172924430Y-96320743D01*
X172954794Y-96377550D01*
X172995657Y-96427343D01*
X173045450Y-96468206D01*
X173102257Y-96498570D01*
X173163897Y-96517268D01*
X173228000Y-96523582D01*
X178308000Y-96523582D01*
X178372103Y-96517268D01*
X178433743Y-96498570D01*
X178490550Y-96468206D01*
X178540343Y-96427343D01*
X178581206Y-96377550D01*
X178611570Y-96320743D01*
X178630268Y-96259103D01*
X178636582Y-96195000D01*
X178636582Y-94695000D01*
X178630268Y-94630897D01*
X178611570Y-94569257D01*
X178581206Y-94512450D01*
X178540343Y-94462657D01*
X178490550Y-94421794D01*
X178433743Y-94391430D01*
X178372103Y-94372732D01*
X178308000Y-94366418D01*
X173228000Y-94366418D01*
X173163897Y-94372732D01*
X173102257Y-94391430D01*
X173045450Y-94421794D01*
X172995657Y-94462657D01*
X172954794Y-94512450D01*
X172924430Y-94569257D01*
X172905732Y-94630897D01*
X172899418Y-94695000D01*
X172899418Y-94993000D01*
X171693506Y-94993000D01*
X171683023Y-94977311D01*
X171595689Y-94889977D01*
X171492996Y-94821360D01*
X171378889Y-94774095D01*
X171257754Y-94750000D01*
X171134246Y-94750000D01*
X171013111Y-94774095D01*
X170899004Y-94821360D01*
X170796311Y-94889977D01*
X170708977Y-94977311D01*
X170640360Y-95080004D01*
X170593095Y-95194111D01*
X170569000Y-95315246D01*
X131770000Y-95315246D01*
X131770000Y-84775582D01*
X132580000Y-84775582D01*
X132644103Y-84769268D01*
X132705743Y-84750570D01*
X132762550Y-84720206D01*
X132812343Y-84679343D01*
X132853206Y-84629550D01*
X132883570Y-84572743D01*
X132902268Y-84511103D01*
X132908582Y-84447000D01*
X132908582Y-83637000D01*
X134940777Y-83637000D01*
X139158207Y-87854431D01*
X139124310Y-87936266D01*
X139081000Y-88154000D01*
X139081000Y-88376000D01*
X139124310Y-88593734D01*
X139209266Y-88798835D01*
X139332602Y-88983421D01*
X139489579Y-89140398D01*
X139674165Y-89263734D01*
X139879266Y-89348690D01*
X140097000Y-89392000D01*
X140319000Y-89392000D01*
X140536734Y-89348690D01*
X140741835Y-89263734D01*
X140926421Y-89140398D01*
X141083398Y-88983421D01*
X141206734Y-88798835D01*
X141291690Y-88593734D01*
X141335000Y-88376000D01*
X141335000Y-88154000D01*
X141291690Y-87936266D01*
X141206734Y-87731165D01*
X141083398Y-87546579D01*
X140926421Y-87389602D01*
X140741835Y-87266266D01*
X140536734Y-87181310D01*
X140319000Y-87138000D01*
X140097000Y-87138000D01*
X139879266Y-87181310D01*
X139797431Y-87215207D01*
X135463323Y-82881100D01*
X135449159Y-82863841D01*
X135380333Y-82807357D01*
X135301810Y-82765386D01*
X135216607Y-82739540D01*
X135150205Y-82733000D01*
X135128000Y-82730813D01*
X135105795Y-82733000D01*
X132908582Y-82733000D01*
X132908582Y-81923000D01*
X132902268Y-81858897D01*
X132883570Y-81797257D01*
X132853206Y-81740450D01*
X132812343Y-81690657D01*
X132762550Y-81649794D01*
X132705743Y-81619430D01*
X132644103Y-81600732D01*
X132580000Y-81594418D01*
X130056000Y-81594418D01*
X129991897Y-81600732D01*
X129930257Y-81619430D01*
X129873450Y-81649794D01*
X129823657Y-81690657D01*
X129782794Y-81740450D01*
X129752430Y-81797257D01*
X129733732Y-81858897D01*
X129727418Y-81923000D01*
X117978072Y-81923000D01*
X117965812Y-81798518D01*
X117929502Y-81678820D01*
X117870537Y-81568506D01*
X117791185Y-81471815D01*
X117694494Y-81392463D01*
X117584180Y-81333498D01*
X117464482Y-81297188D01*
X117340000Y-81284928D01*
X116363750Y-81288000D01*
X116205000Y-81446750D01*
X115951000Y-81446750D01*
X115792250Y-81288000D01*
X114816000Y-81284928D01*
X114691518Y-81297188D01*
X114571820Y-81333498D01*
X114461506Y-81392463D01*
X114364815Y-81471815D01*
X114285463Y-81568506D01*
X114226498Y-81678820D01*
X114190188Y-81798518D01*
X114177928Y-81923000D01*
X111400000Y-81923000D01*
X111400000Y-73427000D01*
X125235224Y-73427000D01*
X125120595Y-73474481D01*
X125120595Y-73474481D01*
G37*
X125120595Y-73474481D02*
X124734225Y-73732645D01*
X124405645Y-74061225D01*
X124147481Y-74447595D01*
X123969655Y-74876905D01*
X123879000Y-75332659D01*
X123879000Y-75797341D01*
X123969655Y-76253095D01*
X124147481Y-76682405D01*
X124405645Y-77068775D01*
X124734225Y-77397355D01*
X125120595Y-77655519D01*
X125549905Y-77833345D01*
X126005659Y-77924000D01*
X126470341Y-77924000D01*
X126926095Y-77833345D01*
X127355405Y-77655519D01*
X127741775Y-77397355D01*
X128070355Y-77068775D01*
X128328519Y-76682405D01*
X128506345Y-76253095D01*
X128597000Y-75797341D01*
X128597000Y-75354120D01*
X128603400Y-75354120D01*
X128603400Y-75775881D01*
X128620628Y-75950798D01*
X128688707Y-76175227D01*
X128799264Y-76382062D01*
X128948047Y-76563354D01*
X129129339Y-76712137D01*
X129336174Y-76822693D01*
X129560603Y-76890772D01*
X129794000Y-76913760D01*
X130027398Y-76890772D01*
X130251827Y-76822693D01*
X130458662Y-76712137D01*
X130639954Y-76563354D01*
X130788737Y-76382061D01*
X130899293Y-76175226D01*
X130967372Y-75950797D01*
X130984600Y-75775880D01*
X130984600Y-75354120D01*
X131143400Y-75354120D01*
X131143400Y-75775881D01*
X131160628Y-75950798D01*
X131228707Y-76175227D01*
X131339264Y-76382062D01*
X131488047Y-76563354D01*
X131669339Y-76712137D01*
X131876174Y-76822693D01*
X132100603Y-76890772D01*
X132334000Y-76913760D01*
X132567398Y-76890772D01*
X132791827Y-76822693D01*
X132998662Y-76712137D01*
X133179954Y-76563354D01*
X133328737Y-76382061D01*
X133439293Y-76175226D01*
X133507372Y-75950797D01*
X133524600Y-75775880D01*
X133524600Y-75354120D01*
X133683400Y-75354120D01*
X133683400Y-75775881D01*
X133700628Y-75950798D01*
X133768707Y-76175227D01*
X133879264Y-76382062D01*
X134028047Y-76563354D01*
X134209339Y-76712137D01*
X134416174Y-76822693D01*
X134640603Y-76890772D01*
X134874000Y-76913760D01*
X135107398Y-76890772D01*
X135331827Y-76822693D01*
X135538662Y-76712137D01*
X135719954Y-76563354D01*
X135868737Y-76382061D01*
X135979293Y-76175226D01*
X135984761Y-76157202D01*
X135998227Y-76212633D01*
X136122046Y-76479321D01*
X136295514Y-76716729D01*
X136511965Y-76915733D01*
X136763081Y-77068686D01*
X137039211Y-77169709D01*
X137054974Y-77172358D01*
X137287000Y-77051217D01*
X137287000Y-75692000D01*
X137267000Y-75692000D01*
X137267000Y-75438000D01*
X137287000Y-75438000D01*
X137287000Y-74078783D01*
X137541000Y-74078783D01*
X137541000Y-75438000D01*
X137561000Y-75438000D01*
X137561000Y-75692000D01*
X137541000Y-75692000D01*
X137541000Y-77051217D01*
X137773026Y-77172358D01*
X137788789Y-77169709D01*
X138064919Y-77068686D01*
X138316035Y-76915733D01*
X138532486Y-76716729D01*
X138705954Y-76479321D01*
X138829773Y-76212633D01*
X138843239Y-76157202D01*
X138848707Y-76175227D01*
X138959264Y-76382062D01*
X139108047Y-76563354D01*
X139289339Y-76712137D01*
X139496174Y-76822693D01*
X139720603Y-76890772D01*
X139954000Y-76913760D01*
X140187398Y-76890772D01*
X140411827Y-76822693D01*
X140618662Y-76712137D01*
X140799954Y-76563354D01*
X140948737Y-76382061D01*
X141059293Y-76175226D01*
X141127372Y-75950797D01*
X141144600Y-75775880D01*
X141144600Y-75354120D01*
X141303400Y-75354120D01*
X141303400Y-75775881D01*
X141320628Y-75950798D01*
X141388707Y-76175227D01*
X141499264Y-76382062D01*
X141648047Y-76563354D01*
X141829339Y-76712137D01*
X142036174Y-76822693D01*
X142260603Y-76890772D01*
X142296001Y-76894258D01*
X142296000Y-87232369D01*
X142214165Y-87266266D01*
X142029579Y-87389602D01*
X141872602Y-87546579D01*
X141749266Y-87731165D01*
X141664310Y-87936266D01*
X141621000Y-88154000D01*
X141621000Y-88376000D01*
X141664310Y-88593734D01*
X141749266Y-88798835D01*
X141872602Y-88983421D01*
X142029579Y-89140398D01*
X142214165Y-89263734D01*
X142419266Y-89348690D01*
X142637000Y-89392000D01*
X142859000Y-89392000D01*
X143076734Y-89348690D01*
X143281835Y-89263734D01*
X143466421Y-89140398D01*
X143623398Y-88983421D01*
X143746734Y-88798835D01*
X143831690Y-88593734D01*
X143875000Y-88376000D01*
X143875000Y-88154000D01*
X143831690Y-87936266D01*
X143746734Y-87731165D01*
X143623398Y-87546579D01*
X143466421Y-87389602D01*
X143281835Y-87266266D01*
X143200000Y-87232369D01*
X143200000Y-76678212D01*
X143339954Y-76563354D01*
X143488737Y-76382061D01*
X143599293Y-76175226D01*
X143667372Y-75950797D01*
X143684600Y-75775880D01*
X143684600Y-75354120D01*
X143843400Y-75354120D01*
X143843400Y-75775881D01*
X143860628Y-75950798D01*
X143928707Y-76175227D01*
X144039264Y-76382062D01*
X144188047Y-76563354D01*
X144369339Y-76712137D01*
X144576174Y-76822693D01*
X144800603Y-76890772D01*
X144836001Y-76894258D01*
X144836000Y-87232369D01*
X144754165Y-87266266D01*
X144569579Y-87389602D01*
X144412602Y-87546579D01*
X144289266Y-87731165D01*
X144204310Y-87936266D01*
X144161000Y-88154000D01*
X144161000Y-88376000D01*
X144204310Y-88593734D01*
X144289266Y-88798835D01*
X144412602Y-88983421D01*
X144569579Y-89140398D01*
X144754165Y-89263734D01*
X144959266Y-89348690D01*
X145177000Y-89392000D01*
X145399000Y-89392000D01*
X145616734Y-89348690D01*
X145821835Y-89263734D01*
X146006421Y-89140398D01*
X146163398Y-88983421D01*
X146253155Y-88849090D01*
X146257539Y-88893607D01*
X146283385Y-88978810D01*
X146325356Y-89057333D01*
X146381840Y-89126160D01*
X146399099Y-89140324D01*
X146952680Y-89693906D01*
X146966840Y-89711160D01*
X147035666Y-89767644D01*
X147081903Y-89792358D01*
X147114189Y-89809615D01*
X147199391Y-89835461D01*
X147287999Y-89844188D01*
X147310204Y-89842001D01*
X149220794Y-89842001D01*
X149242999Y-89844188D01*
X149265204Y-89842001D01*
X149331606Y-89835461D01*
X149416809Y-89809615D01*
X149495332Y-89767644D01*
X149564158Y-89711160D01*
X149578322Y-89693901D01*
X149957431Y-89314793D01*
X150039266Y-89348690D01*
X150257000Y-89392000D01*
X150479000Y-89392000D01*
X150696734Y-89348690D01*
X150901835Y-89263734D01*
X151086421Y-89140398D01*
X151243398Y-88983421D01*
X151366734Y-88798835D01*
X151451690Y-88593734D01*
X151495000Y-88376000D01*
X151495000Y-88154000D01*
X151781000Y-88154000D01*
X151781000Y-88376000D01*
X151824310Y-88593734D01*
X151909266Y-88798835D01*
X152032602Y-88983421D01*
X152189579Y-89140398D01*
X152374165Y-89263734D01*
X152579266Y-89348690D01*
X152797000Y-89392000D01*
X153019000Y-89392000D01*
X153236734Y-89348690D01*
X153441835Y-89263734D01*
X153626421Y-89140398D01*
X153783398Y-88983421D01*
X153906734Y-88798835D01*
X153991690Y-88593734D01*
X154035000Y-88376000D01*
X154035000Y-88154000D01*
X154321000Y-88154000D01*
X154321000Y-88376000D01*
X154364310Y-88593734D01*
X154449266Y-88798835D01*
X154572602Y-88983421D01*
X154729579Y-89140398D01*
X154914165Y-89263734D01*
X155119266Y-89348690D01*
X155337000Y-89392000D01*
X155559000Y-89392000D01*
X155776734Y-89348690D01*
X155981835Y-89263734D01*
X156166421Y-89140398D01*
X156323398Y-88983421D01*
X156446734Y-88798835D01*
X156531690Y-88593734D01*
X156575000Y-88376000D01*
X156575000Y-88154000D01*
X156861000Y-88154000D01*
X156861000Y-88376000D01*
X156904310Y-88593734D01*
X156989266Y-88798835D01*
X157112602Y-88983421D01*
X157269579Y-89140398D01*
X157454165Y-89263734D01*
X157536000Y-89297632D01*
X157536000Y-90147795D01*
X157533813Y-90170000D01*
X157536000Y-90192204D01*
X157542540Y-90258606D01*
X157568386Y-90343809D01*
X157610357Y-90422332D01*
X157666841Y-90491159D01*
X157684100Y-90505323D01*
X159557681Y-92378905D01*
X159571841Y-92396159D01*
X159640667Y-92452643D01*
X159719190Y-92494614D01*
X159804392Y-92520460D01*
X159893000Y-92529187D01*
X159915205Y-92527000D01*
X166220795Y-92527000D01*
X166243000Y-92529187D01*
X166265205Y-92527000D01*
X166331607Y-92520460D01*
X166416810Y-92494614D01*
X166495333Y-92452643D01*
X166564159Y-92396159D01*
X166578323Y-92378900D01*
X169681905Y-89275319D01*
X169699159Y-89261159D01*
X169755643Y-89192333D01*
X169797614Y-89113810D01*
X169799100Y-89108911D01*
X169823460Y-89028608D01*
X169832187Y-88940000D01*
X169830000Y-88917795D01*
X169830000Y-86433003D01*
X169837614Y-86418758D01*
X169863460Y-86333556D01*
X169872187Y-86244949D01*
X169863460Y-86156342D01*
X169855157Y-86128971D01*
X169864467Y-86125115D01*
X170032674Y-86012723D01*
X170175723Y-85869674D01*
X170288115Y-85701467D01*
X170365533Y-85514565D01*
X170405000Y-85316151D01*
X170405000Y-85113849D01*
X170851000Y-85113849D01*
X170851000Y-85316151D01*
X170890467Y-85514565D01*
X170967885Y-85701467D01*
X171080277Y-85869674D01*
X171223326Y-86012723D01*
X171391533Y-86125115D01*
X171578435Y-86202533D01*
X171776849Y-86242000D01*
X171979151Y-86242000D01*
X172177565Y-86202533D01*
X172364467Y-86125115D01*
X172532674Y-86012723D01*
X172675723Y-85869674D01*
X172788115Y-85701467D01*
X172802392Y-85667000D01*
X173080795Y-85667000D01*
X173103000Y-85669187D01*
X173125205Y-85667000D01*
X173191607Y-85660460D01*
X173276810Y-85634614D01*
X173355333Y-85592643D01*
X173424159Y-85536159D01*
X173438323Y-85518900D01*
X174801906Y-84155318D01*
X174819159Y-84141159D01*
X174875643Y-84072333D01*
X174917614Y-83993810D01*
X174943460Y-83908607D01*
X174950000Y-83842205D01*
X174950000Y-83842204D01*
X174952187Y-83820000D01*
X174950000Y-83797795D01*
X174950000Y-76824461D01*
X174955827Y-76822693D01*
X175162662Y-76712137D01*
X175343954Y-76563354D01*
X175492737Y-76382061D01*
X175603293Y-76175226D01*
X175671372Y-75950797D01*
X175688600Y-75775880D01*
X175688600Y-75354119D01*
X175671372Y-75179202D01*
X175603293Y-74954773D01*
X175492737Y-74747938D01*
X175343954Y-74566646D01*
X175162661Y-74417863D01*
X174955826Y-74307307D01*
X174731397Y-74239228D01*
X174498000Y-74216240D01*
X174264602Y-74239228D01*
X174040173Y-74307307D01*
X173833338Y-74417863D01*
X173652046Y-74566646D01*
X173503263Y-74747939D01*
X173392707Y-74954774D01*
X173324628Y-75179203D01*
X173307400Y-75354120D01*
X173307400Y-75775881D01*
X173324628Y-75950798D01*
X173392707Y-76175227D01*
X173503264Y-76382062D01*
X173652047Y-76563354D01*
X173833339Y-76712137D01*
X174040174Y-76822693D01*
X174046000Y-76824460D01*
X174046000Y-76853204D01*
X174046001Y-76853214D01*
X174046000Y-83632776D01*
X172915777Y-84763000D01*
X172802392Y-84763000D01*
X172788115Y-84728533D01*
X172675723Y-84560326D01*
X172532674Y-84417277D01*
X172364467Y-84304885D01*
X172177565Y-84227467D01*
X171979151Y-84188000D01*
X171776849Y-84188000D01*
X171578435Y-84227467D01*
X171391533Y-84304885D01*
X171223326Y-84417277D01*
X171080277Y-84560326D01*
X170967885Y-84728533D01*
X170890467Y-84915435D01*
X170851000Y-85113849D01*
X170405000Y-85113849D01*
X170365533Y-84915435D01*
X170288115Y-84728533D01*
X170175723Y-84560326D01*
X170032674Y-84417277D01*
X169864467Y-84304885D01*
X169677565Y-84227467D01*
X169479151Y-84188000D01*
X169276849Y-84188000D01*
X169078435Y-84227467D01*
X168891533Y-84304885D01*
X168723326Y-84417277D01*
X168580277Y-84560326D01*
X168467885Y-84728533D01*
X168390467Y-84915435D01*
X168351000Y-85113849D01*
X168351000Y-85316151D01*
X168390467Y-85514565D01*
X168467885Y-85701467D01*
X168580277Y-85869674D01*
X168723326Y-86012723D01*
X168891533Y-86125115D01*
X168926000Y-86139392D01*
X168926000Y-86182741D01*
X168923813Y-86204949D01*
X168926000Y-86227154D01*
X168926001Y-88752775D01*
X166055777Y-91623000D01*
X160080224Y-91623000D01*
X158440000Y-89982777D01*
X158440000Y-89297631D01*
X158521835Y-89263734D01*
X158706421Y-89140398D01*
X158863398Y-88983421D01*
X158986734Y-88798835D01*
X159071690Y-88593734D01*
X159115000Y-88376000D01*
X159115000Y-88154000D01*
X159401000Y-88154000D01*
X159401000Y-88376000D01*
X159444310Y-88593734D01*
X159529266Y-88798835D01*
X159652602Y-88983421D01*
X159809579Y-89140398D01*
X159994165Y-89263734D01*
X160199266Y-89348690D01*
X160417000Y-89392000D01*
X160639000Y-89392000D01*
X160856734Y-89348690D01*
X161061835Y-89263734D01*
X161070862Y-89257702D01*
X162254903Y-89257702D01*
X162326486Y-89501671D01*
X162581996Y-89622571D01*
X162856184Y-89691300D01*
X163138512Y-89705217D01*
X163418130Y-89663787D01*
X163684292Y-89568603D01*
X163809514Y-89501671D01*
X163881097Y-89257702D01*
X163068000Y-88444605D01*
X162254903Y-89257702D01*
X161070862Y-89257702D01*
X161246421Y-89140398D01*
X161403398Y-88983421D01*
X161526734Y-88798835D01*
X161611690Y-88593734D01*
X161642840Y-88437133D01*
X161669213Y-88615130D01*
X161764397Y-88881292D01*
X161831329Y-89006514D01*
X162075298Y-89078097D01*
X162888395Y-88265000D01*
X163247605Y-88265000D01*
X164060702Y-89078097D01*
X164304671Y-89006514D01*
X164425571Y-88751004D01*
X164494300Y-88476816D01*
X164508217Y-88194488D01*
X164466787Y-87914870D01*
X164371603Y-87648708D01*
X164304671Y-87523486D01*
X164060702Y-87451903D01*
X163247605Y-88265000D01*
X162888395Y-88265000D01*
X162874253Y-88250858D01*
X163053858Y-88071253D01*
X163068000Y-88085395D01*
X163881097Y-87272298D01*
X163809514Y-87028329D01*
X163554004Y-86907429D01*
X163279816Y-86838700D01*
X162997488Y-86824783D01*
X162717870Y-86866213D01*
X162481470Y-86950754D01*
X164641905Y-84790319D01*
X164659159Y-84776159D01*
X164715643Y-84707333D01*
X164757614Y-84628810D01*
X164775004Y-84571482D01*
X164783460Y-84543608D01*
X164792187Y-84455000D01*
X164790000Y-84432795D01*
X164790000Y-81215000D01*
X165849418Y-81215000D01*
X165849418Y-82615000D01*
X165855732Y-82679103D01*
X165874430Y-82740743D01*
X165904794Y-82797550D01*
X165945657Y-82847343D01*
X165995450Y-82888206D01*
X166052257Y-82918570D01*
X166113897Y-82937268D01*
X166178000Y-82943582D01*
X167578000Y-82943582D01*
X167642103Y-82937268D01*
X167696000Y-82920919D01*
X167696000Y-83757775D01*
X167212032Y-84241744D01*
X167177565Y-84227467D01*
X166979151Y-84188000D01*
X166776849Y-84188000D01*
X166578435Y-84227467D01*
X166391533Y-84304885D01*
X166223326Y-84417277D01*
X166080277Y-84560326D01*
X165967885Y-84728533D01*
X165890467Y-84915435D01*
X165851000Y-85113849D01*
X165851000Y-85316151D01*
X165890467Y-85514565D01*
X165967885Y-85701467D01*
X166080277Y-85869674D01*
X166223326Y-86012723D01*
X166391533Y-86125115D01*
X166578435Y-86202533D01*
X166776849Y-86242000D01*
X166979151Y-86242000D01*
X167177565Y-86202533D01*
X167364467Y-86125115D01*
X167532674Y-86012723D01*
X167675723Y-85869674D01*
X167788115Y-85701467D01*
X167865533Y-85514565D01*
X167905000Y-85316151D01*
X167905000Y-85113849D01*
X167865533Y-84915435D01*
X167851256Y-84880968D01*
X168451912Y-84280313D01*
X168469159Y-84266159D01*
X168525643Y-84197333D01*
X168567614Y-84118810D01*
X168587444Y-84053438D01*
X168593460Y-84033608D01*
X168602187Y-83945001D01*
X168600000Y-83922796D01*
X168600000Y-82589397D01*
X168723326Y-82712723D01*
X168891533Y-82825115D01*
X169078435Y-82902533D01*
X169276849Y-82942000D01*
X169479151Y-82942000D01*
X169677565Y-82902533D01*
X169864467Y-82825115D01*
X170032674Y-82712723D01*
X170175723Y-82569674D01*
X170288115Y-82401467D01*
X170365533Y-82214565D01*
X170405000Y-82016151D01*
X170405000Y-81813849D01*
X170365533Y-81615435D01*
X170288115Y-81428533D01*
X170175723Y-81260326D01*
X170032674Y-81117277D01*
X169864467Y-81004885D01*
X169677565Y-80927467D01*
X169479151Y-80888000D01*
X169276849Y-80888000D01*
X169078435Y-80927467D01*
X168891533Y-81004885D01*
X168723326Y-81117277D01*
X168600000Y-81240603D01*
X168600000Y-78288223D01*
X169721912Y-77166313D01*
X169739159Y-77152159D01*
X169795643Y-77083333D01*
X169837614Y-77004810D01*
X169863460Y-76919607D01*
X169870000Y-76853205D01*
X169870000Y-76853204D01*
X169872187Y-76831001D01*
X169871498Y-76824006D01*
X169875827Y-76822693D01*
X170082662Y-76712137D01*
X170263954Y-76563354D01*
X170412737Y-76382061D01*
X170523293Y-76175226D01*
X170591372Y-75950797D01*
X170608600Y-75775880D01*
X170608600Y-75354120D01*
X170767400Y-75354120D01*
X170767400Y-75775881D01*
X170784628Y-75950798D01*
X170852707Y-76175227D01*
X170963264Y-76382062D01*
X171112047Y-76563354D01*
X171293339Y-76712137D01*
X171426001Y-76783046D01*
X171426000Y-80990608D01*
X171391533Y-81004885D01*
X171223326Y-81117277D01*
X171080277Y-81260326D01*
X170967885Y-81428533D01*
X170890467Y-81615435D01*
X170851000Y-81813849D01*
X170851000Y-82016151D01*
X170890467Y-82214565D01*
X170967885Y-82401467D01*
X171080277Y-82569674D01*
X171223326Y-82712723D01*
X171391533Y-82825115D01*
X171578435Y-82902533D01*
X171776849Y-82942000D01*
X171979151Y-82942000D01*
X172177565Y-82902533D01*
X172364467Y-82825115D01*
X172532674Y-82712723D01*
X172675723Y-82569674D01*
X172788115Y-82401467D01*
X172865533Y-82214565D01*
X172905000Y-82016151D01*
X172905000Y-81813849D01*
X172865533Y-81615435D01*
X172788115Y-81428533D01*
X172675723Y-81260326D01*
X172532674Y-81117277D01*
X172364467Y-81004885D01*
X172330000Y-80990608D01*
X172330000Y-76848728D01*
X172415827Y-76822693D01*
X172622662Y-76712137D01*
X172803954Y-76563354D01*
X172952737Y-76382061D01*
X173063293Y-76175226D01*
X173131372Y-75950797D01*
X173148600Y-75775880D01*
X173148600Y-75354119D01*
X173131372Y-75179202D01*
X173063293Y-74954773D01*
X172952737Y-74747938D01*
X172803954Y-74566646D01*
X172622661Y-74417863D01*
X172415826Y-74307307D01*
X172191397Y-74239228D01*
X171958000Y-74216240D01*
X171724602Y-74239228D01*
X171500173Y-74307307D01*
X171293338Y-74417863D01*
X171112046Y-74566646D01*
X170963263Y-74747939D01*
X170852707Y-74954774D01*
X170784628Y-75179203D01*
X170767400Y-75354120D01*
X170608600Y-75354120D01*
X170608600Y-75354119D01*
X170591372Y-75179202D01*
X170523293Y-74954773D01*
X170412737Y-74747938D01*
X170263954Y-74566646D01*
X170082661Y-74417863D01*
X169875826Y-74307307D01*
X169651397Y-74239228D01*
X169418000Y-74216240D01*
X169184602Y-74239228D01*
X168960173Y-74307307D01*
X168753338Y-74417863D01*
X168572046Y-74566646D01*
X168423263Y-74747939D01*
X168312707Y-74954774D01*
X168244628Y-75179203D01*
X168227400Y-75354120D01*
X168227400Y-75775881D01*
X168244628Y-75950798D01*
X168312707Y-76175227D01*
X168423264Y-76382062D01*
X168572047Y-76563354D01*
X168753339Y-76712137D01*
X168847375Y-76762400D01*
X167844096Y-77765681D01*
X167826842Y-77779841D01*
X167770358Y-77848667D01*
X167728386Y-77927191D01*
X167702540Y-78012393D01*
X167693813Y-78101000D01*
X167696001Y-78123215D01*
X167696001Y-80909081D01*
X167642103Y-80892732D01*
X167578000Y-80886418D01*
X166178000Y-80886418D01*
X166113897Y-80892732D01*
X166052257Y-80911430D01*
X165995450Y-80941794D01*
X165945657Y-80982657D01*
X165904794Y-81032450D01*
X165874430Y-81089257D01*
X165855732Y-81150897D01*
X165849418Y-81215000D01*
X164790000Y-81215000D01*
X164790000Y-76824461D01*
X164795827Y-76822693D01*
X165002662Y-76712137D01*
X165183954Y-76563354D01*
X165332737Y-76382061D01*
X165443293Y-76175226D01*
X165511372Y-75950797D01*
X165528600Y-75775880D01*
X165528600Y-75354120D01*
X165687400Y-75354120D01*
X165687400Y-75775881D01*
X165704628Y-75950798D01*
X165772707Y-76175227D01*
X165883264Y-76382062D01*
X166032047Y-76563354D01*
X166213339Y-76712137D01*
X166420174Y-76822693D01*
X166644603Y-76890772D01*
X166878000Y-76913760D01*
X167111398Y-76890772D01*
X167335827Y-76822693D01*
X167542662Y-76712137D01*
X167723954Y-76563354D01*
X167872737Y-76382061D01*
X167983293Y-76175226D01*
X168051372Y-75950797D01*
X168068600Y-75775880D01*
X168068600Y-75354119D01*
X168051372Y-75179202D01*
X167983293Y-74954773D01*
X167872737Y-74747938D01*
X167723954Y-74566646D01*
X167542661Y-74417863D01*
X167335826Y-74307307D01*
X167111397Y-74239228D01*
X166878000Y-74216240D01*
X166644602Y-74239228D01*
X166420173Y-74307307D01*
X166213338Y-74417863D01*
X166032046Y-74566646D01*
X165883263Y-74747939D01*
X165772707Y-74954774D01*
X165704628Y-75179203D01*
X165687400Y-75354120D01*
X165528600Y-75354120D01*
X165528600Y-75354119D01*
X165511372Y-75179202D01*
X165443293Y-74954773D01*
X165332737Y-74747938D01*
X165183954Y-74566646D01*
X165002661Y-74417863D01*
X164795826Y-74307307D01*
X164571397Y-74239228D01*
X164338000Y-74216240D01*
X164104602Y-74239228D01*
X163880173Y-74307307D01*
X163673338Y-74417863D01*
X163492046Y-74566646D01*
X163343263Y-74747939D01*
X163232707Y-74954774D01*
X163164628Y-75179203D01*
X163147400Y-75354120D01*
X163147400Y-75775881D01*
X163164628Y-75950798D01*
X163232707Y-76175227D01*
X163343264Y-76382062D01*
X163492047Y-76563354D01*
X163673339Y-76712137D01*
X163880174Y-76822693D01*
X163886000Y-76824460D01*
X163886001Y-84267775D01*
X160938569Y-87215207D01*
X160856734Y-87181310D01*
X160639000Y-87138000D01*
X160417000Y-87138000D01*
X160199266Y-87181310D01*
X159994165Y-87266266D01*
X159809579Y-87389602D01*
X159652602Y-87546579D01*
X159529266Y-87731165D01*
X159444310Y-87936266D01*
X159401000Y-88154000D01*
X159115000Y-88154000D01*
X159071690Y-87936266D01*
X158986734Y-87731165D01*
X158863398Y-87546579D01*
X158706421Y-87389602D01*
X158521835Y-87266266D01*
X158316734Y-87181310D01*
X158099000Y-87138000D01*
X157877000Y-87138000D01*
X157659266Y-87181310D01*
X157454165Y-87266266D01*
X157269579Y-87389602D01*
X157112602Y-87546579D01*
X156989266Y-87731165D01*
X156904310Y-87936266D01*
X156861000Y-88154000D01*
X156575000Y-88154000D01*
X156531690Y-87936266D01*
X156446734Y-87731165D01*
X156323398Y-87546579D01*
X156166421Y-87389602D01*
X155981835Y-87266266D01*
X155776734Y-87181310D01*
X155559000Y-87138000D01*
X155337000Y-87138000D01*
X155119266Y-87181310D01*
X154914165Y-87266266D01*
X154729579Y-87389602D01*
X154572602Y-87546579D01*
X154449266Y-87731165D01*
X154364310Y-87936266D01*
X154321000Y-88154000D01*
X154035000Y-88154000D01*
X153991690Y-87936266D01*
X153957793Y-87854431D01*
X162101906Y-79710318D01*
X162119159Y-79696159D01*
X162175643Y-79627333D01*
X162179451Y-79620209D01*
X162197689Y-79608023D01*
X162285023Y-79520689D01*
X162353640Y-79417996D01*
X162400905Y-79303889D01*
X162425000Y-79182754D01*
X162425000Y-79059246D01*
X162400905Y-78938111D01*
X162353640Y-78824004D01*
X162285023Y-78721311D01*
X162197689Y-78633977D01*
X162094996Y-78565360D01*
X161980889Y-78518095D01*
X161859754Y-78494000D01*
X161736246Y-78494000D01*
X161615111Y-78518095D01*
X161501004Y-78565360D01*
X161398311Y-78633977D01*
X161310977Y-78721311D01*
X161242360Y-78824004D01*
X161195095Y-78938111D01*
X161171000Y-79059246D01*
X161171000Y-79182754D01*
X161195095Y-79303889D01*
X161205285Y-79328491D01*
X153318569Y-87215207D01*
X153236734Y-87181310D01*
X153019000Y-87138000D01*
X152797000Y-87138000D01*
X152579266Y-87181310D01*
X152374165Y-87266266D01*
X152189579Y-87389602D01*
X152032602Y-87546579D01*
X151909266Y-87731165D01*
X151824310Y-87936266D01*
X151781000Y-88154000D01*
X151495000Y-88154000D01*
X151451690Y-87936266D01*
X151366734Y-87731165D01*
X151243398Y-87546579D01*
X151086421Y-87389602D01*
X150901835Y-87266266D01*
X150696734Y-87181310D01*
X150479000Y-87138000D01*
X150257000Y-87138000D01*
X150039266Y-87181310D01*
X149834165Y-87266266D01*
X149649579Y-87389602D01*
X149492602Y-87546579D01*
X149369266Y-87731165D01*
X149284310Y-87936266D01*
X149241000Y-88154000D01*
X149241000Y-88376000D01*
X149284310Y-88593734D01*
X149318207Y-88675569D01*
X149055776Y-88938001D01*
X148733747Y-88938001D01*
X148826734Y-88798835D01*
X148911690Y-88593734D01*
X148955000Y-88376000D01*
X148955000Y-88154000D01*
X148911690Y-87936266D01*
X148826734Y-87731165D01*
X148703398Y-87546579D01*
X148546421Y-87389602D01*
X148361835Y-87266266D01*
X148280000Y-87232369D01*
X148280000Y-80197223D01*
X150417912Y-78059313D01*
X150435159Y-78045159D01*
X150491643Y-77976333D01*
X150533614Y-77897810D01*
X150559460Y-77812607D01*
X150566000Y-77746205D01*
X150566000Y-77746204D01*
X150568187Y-77724001D01*
X150566000Y-77701796D01*
X150566000Y-76824461D01*
X150571827Y-76822693D01*
X150778662Y-76712137D01*
X150959954Y-76563354D01*
X151108737Y-76382061D01*
X151219293Y-76175226D01*
X151287372Y-75950797D01*
X151304600Y-75775880D01*
X151304600Y-75354120D01*
X151463400Y-75354120D01*
X151463400Y-75775881D01*
X151480628Y-75950798D01*
X151548707Y-76175227D01*
X151659264Y-76382062D01*
X151808047Y-76563354D01*
X151989339Y-76712137D01*
X152196174Y-76822693D01*
X152420603Y-76890772D01*
X152654000Y-76913760D01*
X152887398Y-76890772D01*
X153111827Y-76822693D01*
X153318662Y-76712137D01*
X153499954Y-76563354D01*
X153648737Y-76382061D01*
X153759293Y-76175226D01*
X153827372Y-75950797D01*
X153844600Y-75775880D01*
X153844600Y-75354120D01*
X155527400Y-75354120D01*
X155527400Y-75775881D01*
X155544628Y-75950798D01*
X155612707Y-76175227D01*
X155723264Y-76382062D01*
X155872047Y-76563354D01*
X156053339Y-76712137D01*
X156260174Y-76822693D01*
X156484603Y-76890772D01*
X156718000Y-76913760D01*
X156951398Y-76890772D01*
X157175827Y-76822693D01*
X157382662Y-76712137D01*
X157563954Y-76563354D01*
X157712737Y-76382061D01*
X157823293Y-76175226D01*
X157891372Y-75950797D01*
X157908600Y-75775880D01*
X157908600Y-75354120D01*
X158067400Y-75354120D01*
X158067400Y-75775881D01*
X158084628Y-75950798D01*
X158152707Y-76175227D01*
X158263264Y-76382062D01*
X158412047Y-76563354D01*
X158593339Y-76712137D01*
X158800174Y-76822693D01*
X159024603Y-76890772D01*
X159258000Y-76913760D01*
X159491398Y-76890772D01*
X159715827Y-76822693D01*
X159922662Y-76712137D01*
X160103954Y-76563354D01*
X160252737Y-76382061D01*
X160363293Y-76175226D01*
X160431372Y-75950797D01*
X160448600Y-75775880D01*
X160448600Y-75354120D01*
X160607400Y-75354120D01*
X160607400Y-75775881D01*
X160624628Y-75950798D01*
X160692707Y-76175227D01*
X160803264Y-76382062D01*
X160952047Y-76563354D01*
X161133339Y-76712137D01*
X161340174Y-76822693D01*
X161564603Y-76890772D01*
X161798000Y-76913760D01*
X162031398Y-76890772D01*
X162255827Y-76822693D01*
X162462662Y-76712137D01*
X162643954Y-76563354D01*
X162792737Y-76382061D01*
X162903293Y-76175226D01*
X162971372Y-75950797D01*
X162988600Y-75775880D01*
X162988600Y-75354119D01*
X162971372Y-75179202D01*
X162903293Y-74954773D01*
X162792737Y-74747938D01*
X162643954Y-74566646D01*
X162462661Y-74417863D01*
X162255826Y-74307307D01*
X162031397Y-74239228D01*
X161798000Y-74216240D01*
X161564602Y-74239228D01*
X161340173Y-74307307D01*
X161133338Y-74417863D01*
X160952046Y-74566646D01*
X160803263Y-74747939D01*
X160692707Y-74954774D01*
X160624628Y-75179203D01*
X160607400Y-75354120D01*
X160448600Y-75354120D01*
X160448600Y-75354119D01*
X160431372Y-75179202D01*
X160363293Y-74954773D01*
X160252737Y-74747938D01*
X160103954Y-74566646D01*
X159922661Y-74417863D01*
X159715826Y-74307307D01*
X159491397Y-74239228D01*
X159258000Y-74216240D01*
X159024602Y-74239228D01*
X158800173Y-74307307D01*
X158593338Y-74417863D01*
X158412046Y-74566646D01*
X158263263Y-74747939D01*
X158152707Y-74954774D01*
X158084628Y-75179203D01*
X158067400Y-75354120D01*
X157908600Y-75354120D01*
X157908600Y-75354119D01*
X157891372Y-75179202D01*
X157823293Y-74954773D01*
X157712737Y-74747938D01*
X157563954Y-74566646D01*
X157382661Y-74417863D01*
X157175826Y-74307307D01*
X156951397Y-74239228D01*
X156718000Y-74216240D01*
X156484602Y-74239228D01*
X156260173Y-74307307D01*
X156053338Y-74417863D01*
X155872046Y-74566646D01*
X155723263Y-74747939D01*
X155612707Y-74954774D01*
X155544628Y-75179203D01*
X155527400Y-75354120D01*
X153844600Y-75354120D01*
X153844600Y-75354119D01*
X153827372Y-75179202D01*
X153759293Y-74954773D01*
X153648737Y-74747938D01*
X153499954Y-74566646D01*
X153318661Y-74417863D01*
X153111826Y-74307307D01*
X152887397Y-74239228D01*
X152654000Y-74216240D01*
X152420602Y-74239228D01*
X152196173Y-74307307D01*
X151989338Y-74417863D01*
X151808046Y-74566646D01*
X151659263Y-74747939D01*
X151548707Y-74954774D01*
X151480628Y-75179203D01*
X151463400Y-75354120D01*
X151304600Y-75354120D01*
X151304600Y-75354119D01*
X151287372Y-75179202D01*
X151219293Y-74954773D01*
X151108737Y-74747938D01*
X150959954Y-74566646D01*
X150778661Y-74417863D01*
X150571826Y-74307307D01*
X150347397Y-74239228D01*
X150114000Y-74216240D01*
X149880602Y-74239228D01*
X149656173Y-74307307D01*
X149449338Y-74417863D01*
X149268046Y-74566646D01*
X149119263Y-74747939D01*
X149008707Y-74954774D01*
X148940628Y-75179203D01*
X148923400Y-75354120D01*
X148923400Y-75775881D01*
X148940628Y-75950798D01*
X149008707Y-76175227D01*
X149119264Y-76382062D01*
X149268047Y-76563354D01*
X149449339Y-76712137D01*
X149656174Y-76822693D01*
X149662000Y-76824460D01*
X149662000Y-77536775D01*
X147524096Y-79674681D01*
X147506842Y-79688841D01*
X147454481Y-79752643D01*
X147450358Y-79757667D01*
X147408386Y-79836191D01*
X147382540Y-79921393D01*
X147373813Y-80010000D01*
X147376001Y-80032215D01*
X147376000Y-87232369D01*
X147294165Y-87266266D01*
X147154999Y-87359253D01*
X147154999Y-77889224D01*
X147877911Y-77166313D01*
X147895159Y-77152159D01*
X147951643Y-77083333D01*
X147993614Y-77004810D01*
X148019460Y-76919607D01*
X148026000Y-76853205D01*
X148026000Y-76853204D01*
X148028187Y-76831001D01*
X148027498Y-76824006D01*
X148031827Y-76822693D01*
X148238662Y-76712137D01*
X148419954Y-76563354D01*
X148568737Y-76382061D01*
X148679293Y-76175226D01*
X148747372Y-75950797D01*
X148764600Y-75775880D01*
X148764600Y-75354119D01*
X148747372Y-75179202D01*
X148679293Y-74954773D01*
X148568737Y-74747938D01*
X148419954Y-74566646D01*
X148238661Y-74417863D01*
X148031826Y-74307307D01*
X147807397Y-74239228D01*
X147574000Y-74216240D01*
X147340602Y-74239228D01*
X147116173Y-74307307D01*
X146909338Y-74417863D01*
X146728046Y-74566646D01*
X146579263Y-74747939D01*
X146468707Y-74954774D01*
X146400628Y-75179203D01*
X146383400Y-75354120D01*
X146383400Y-75775881D01*
X146400628Y-75950798D01*
X146468707Y-76175227D01*
X146579264Y-76382062D01*
X146728047Y-76563354D01*
X146909339Y-76712137D01*
X147003375Y-76762401D01*
X146399095Y-77366682D01*
X146381841Y-77380842D01*
X146325357Y-77449668D01*
X146283385Y-77528192D01*
X146257539Y-77613394D01*
X146248812Y-77702001D01*
X146251000Y-77724216D01*
X146250999Y-87677684D01*
X146163398Y-87546579D01*
X146006421Y-87389602D01*
X145821835Y-87266266D01*
X145740000Y-87232369D01*
X145740000Y-76678212D01*
X145879954Y-76563354D01*
X146028737Y-76382061D01*
X146139293Y-76175226D01*
X146207372Y-75950797D01*
X146224600Y-75775880D01*
X146224600Y-75354119D01*
X146207372Y-75179202D01*
X146139293Y-74954773D01*
X146028737Y-74747938D01*
X145879954Y-74566646D01*
X145698661Y-74417863D01*
X145491826Y-74307307D01*
X145267397Y-74239228D01*
X145034000Y-74216240D01*
X144800602Y-74239228D01*
X144576173Y-74307307D01*
X144369338Y-74417863D01*
X144188046Y-74566646D01*
X144039263Y-74747939D01*
X143928707Y-74954774D01*
X143860628Y-75179203D01*
X143843400Y-75354120D01*
X143684600Y-75354120D01*
X143684600Y-75354119D01*
X143667372Y-75179202D01*
X143599293Y-74954773D01*
X143488737Y-74747938D01*
X143339954Y-74566646D01*
X143158661Y-74417863D01*
X142951826Y-74307307D01*
X142727397Y-74239228D01*
X142494000Y-74216240D01*
X142260602Y-74239228D01*
X142036173Y-74307307D01*
X141829338Y-74417863D01*
X141648046Y-74566646D01*
X141499263Y-74747939D01*
X141388707Y-74954774D01*
X141320628Y-75179203D01*
X141303400Y-75354120D01*
X141144600Y-75354120D01*
X141144600Y-75354119D01*
X141127372Y-75179202D01*
X141059293Y-74954773D01*
X140948737Y-74747938D01*
X140799954Y-74566646D01*
X140618661Y-74417863D01*
X140411826Y-74307307D01*
X140187397Y-74239228D01*
X139954000Y-74216240D01*
X139720602Y-74239228D01*
X139496173Y-74307307D01*
X139289338Y-74417863D01*
X139108046Y-74566646D01*
X138959263Y-74747939D01*
X138848707Y-74954774D01*
X138843239Y-74972798D01*
X138829773Y-74917367D01*
X138705954Y-74650679D01*
X138532486Y-74413271D01*
X138316035Y-74214267D01*
X138064919Y-74061314D01*
X137788789Y-73960291D01*
X137773026Y-73957642D01*
X137541000Y-74078783D01*
X137287000Y-74078783D01*
X137054974Y-73957642D01*
X137039211Y-73960291D01*
X136763081Y-74061314D01*
X136511965Y-74214267D01*
X136295514Y-74413271D01*
X136122046Y-74650679D01*
X135998227Y-74917367D01*
X135984761Y-74972798D01*
X135979293Y-74954773D01*
X135868737Y-74747938D01*
X135719954Y-74566646D01*
X135538661Y-74417863D01*
X135331826Y-74307307D01*
X135107397Y-74239228D01*
X134874000Y-74216240D01*
X134640602Y-74239228D01*
X134416173Y-74307307D01*
X134209338Y-74417863D01*
X134028046Y-74566646D01*
X133879263Y-74747939D01*
X133768707Y-74954774D01*
X133700628Y-75179203D01*
X133683400Y-75354120D01*
X133524600Y-75354120D01*
X133524600Y-75354119D01*
X133507372Y-75179202D01*
X133439293Y-74954773D01*
X133328737Y-74747938D01*
X133179954Y-74566646D01*
X132998661Y-74417863D01*
X132791826Y-74307307D01*
X132567397Y-74239228D01*
X132334000Y-74216240D01*
X132100602Y-74239228D01*
X131876173Y-74307307D01*
X131669338Y-74417863D01*
X131488046Y-74566646D01*
X131339263Y-74747939D01*
X131228707Y-74954774D01*
X131160628Y-75179203D01*
X131143400Y-75354120D01*
X130984600Y-75354120D01*
X130984600Y-75354119D01*
X130967372Y-75179202D01*
X130899293Y-74954773D01*
X130788737Y-74747938D01*
X130639954Y-74566646D01*
X130458661Y-74417863D01*
X130251826Y-74307307D01*
X130027397Y-74239228D01*
X129794000Y-74216240D01*
X129560602Y-74239228D01*
X129336173Y-74307307D01*
X129129338Y-74417863D01*
X128948046Y-74566646D01*
X128799263Y-74747939D01*
X128688707Y-74954774D01*
X128620628Y-75179203D01*
X128603400Y-75354120D01*
X128597000Y-75354120D01*
X128597000Y-75332659D01*
X128506345Y-74876905D01*
X128328519Y-74447595D01*
X128070355Y-74061225D01*
X127741775Y-73732645D01*
X127355405Y-73474481D01*
X127240776Y-73427000D01*
X175347487Y-73427000D01*
X176636001Y-74715515D01*
X176636000Y-85959261D01*
X176634056Y-85979000D01*
X176636000Y-85998739D01*
X176636000Y-85998746D01*
X176641817Y-86057805D01*
X176664803Y-86133582D01*
X176702132Y-86203419D01*
X176752368Y-86264632D01*
X176767710Y-86277223D01*
X179176001Y-88685515D01*
X179176001Y-89802227D01*
X179128519Y-89687595D01*
X178870355Y-89301225D01*
X178541775Y-88972645D01*
X178155405Y-88714481D01*
X177726095Y-88536655D01*
X177270341Y-88446000D01*
X176805659Y-88446000D01*
X176349905Y-88536655D01*
X175920595Y-88714481D01*
X175534225Y-88972645D01*
X175205645Y-89301225D01*
X174947481Y-89687595D01*
X174769655Y-90116905D01*
X174679000Y-90572659D01*
X174679000Y-91037341D01*
X174769655Y-91493095D01*
X174947481Y-91922405D01*
X175205645Y-92308775D01*
X175534225Y-92637355D01*
X175920595Y-92895519D01*
X176349905Y-93073345D01*
X176805659Y-93164000D01*
X177270341Y-93164000D01*
X177726095Y-93073345D01*
X178155405Y-92895519D01*
X178541775Y-92637355D01*
X178870355Y-92308775D01*
X179128519Y-91922405D01*
X179176001Y-91807774D01*
X179176000Y-117742225D01*
X179128519Y-117627595D01*
X178870355Y-117241225D01*
X178541775Y-116912645D01*
X178155405Y-116654481D01*
X177726095Y-116476655D01*
X177270341Y-116386000D01*
X176805659Y-116386000D01*
X176349905Y-116476655D01*
X175920595Y-116654481D01*
X175534225Y-116912645D01*
X175205645Y-117241225D01*
X174947481Y-117627595D01*
X174769655Y-118056905D01*
X174679000Y-118512659D01*
X174679000Y-118977341D01*
X174769655Y-119433095D01*
X174947481Y-119862405D01*
X175205645Y-120248775D01*
X175534225Y-120577355D01*
X175920595Y-120835519D01*
X176349905Y-121013345D01*
X176805659Y-121104000D01*
X177270341Y-121104000D01*
X177726095Y-121013345D01*
X178155405Y-120835519D01*
X178541775Y-120577355D01*
X178870355Y-120248775D01*
X179128519Y-119862405D01*
X179176000Y-119747776D01*
X179176000Y-121118486D01*
X176767705Y-123526782D01*
X176752369Y-123539368D01*
X176702133Y-123600580D01*
X176694896Y-123614120D01*
X176664804Y-123670417D01*
X176641817Y-123746195D01*
X176634056Y-123825000D01*
X176636001Y-123844749D01*
X176636000Y-125963000D01*
X125970776Y-125963000D01*
X126085405Y-125915519D01*
X126471775Y-125657355D01*
X126800355Y-125328775D01*
X127058519Y-124942405D01*
X127236345Y-124513095D01*
X127327000Y-124057341D01*
X127327000Y-123614120D01*
X137747400Y-123614120D01*
X137747400Y-124035881D01*
X137764628Y-124210798D01*
X137832707Y-124435227D01*
X137943264Y-124642062D01*
X138092047Y-124823354D01*
X138273339Y-124972137D01*
X138480174Y-125082693D01*
X138704603Y-125150772D01*
X138938000Y-125173760D01*
X139171398Y-125150772D01*
X139395827Y-125082693D01*
X139602662Y-124972137D01*
X139783954Y-124823354D01*
X139932737Y-124642061D01*
X140043293Y-124435226D01*
X140111372Y-124210797D01*
X140128600Y-124035880D01*
X140128600Y-123614120D01*
X140287400Y-123614120D01*
X140287400Y-124035881D01*
X140304628Y-124210798D01*
X140372707Y-124435227D01*
X140483264Y-124642062D01*
X140632047Y-124823354D01*
X140813339Y-124972137D01*
X141020174Y-125082693D01*
X141244603Y-125150772D01*
X141478000Y-125173760D01*
X141711398Y-125150772D01*
X141935827Y-125082693D01*
X142142662Y-124972137D01*
X142323954Y-124823354D01*
X142472737Y-124642061D01*
X142583293Y-124435226D01*
X142651372Y-124210797D01*
X142668600Y-124035880D01*
X142668600Y-123614120D01*
X142827400Y-123614120D01*
X142827400Y-124035881D01*
X142844628Y-124210798D01*
X142912707Y-124435227D01*
X143023264Y-124642062D01*
X143172047Y-124823354D01*
X143353339Y-124972137D01*
X143560174Y-125082693D01*
X143784603Y-125150772D01*
X144018000Y-125173760D01*
X144251398Y-125150772D01*
X144475827Y-125082693D01*
X144682662Y-124972137D01*
X144863954Y-124823354D01*
X145012737Y-124642061D01*
X145123293Y-124435226D01*
X145191372Y-124210797D01*
X145208600Y-124035880D01*
X145208600Y-123614120D01*
X145367400Y-123614120D01*
X145367400Y-124035881D01*
X145384628Y-124210798D01*
X145452707Y-124435227D01*
X145563264Y-124642062D01*
X145712047Y-124823354D01*
X145893339Y-124972137D01*
X146100174Y-125082693D01*
X146324603Y-125150772D01*
X146558000Y-125173760D01*
X146791398Y-125150772D01*
X147015827Y-125082693D01*
X147222662Y-124972137D01*
X147403954Y-124823354D01*
X147552737Y-124642061D01*
X147663293Y-124435226D01*
X147731372Y-124210797D01*
X147748600Y-124035880D01*
X147748600Y-123614119D01*
X147731372Y-123439202D01*
X147663293Y-123214773D01*
X147552737Y-123007938D01*
X147403954Y-122826646D01*
X147222661Y-122677863D01*
X147015826Y-122567307D01*
X146791397Y-122499228D01*
X146558000Y-122476240D01*
X146324602Y-122499228D01*
X146100173Y-122567307D01*
X145893338Y-122677863D01*
X145712046Y-122826646D01*
X145563263Y-123007939D01*
X145452707Y-123214774D01*
X145384628Y-123439203D01*
X145367400Y-123614120D01*
X145208600Y-123614120D01*
X145208600Y-123614119D01*
X145191372Y-123439202D01*
X145123293Y-123214773D01*
X145012737Y-123007938D01*
X144863954Y-122826646D01*
X144682661Y-122677863D01*
X144475826Y-122567307D01*
X144251397Y-122499228D01*
X144018000Y-122476240D01*
X143784602Y-122499228D01*
X143560173Y-122567307D01*
X143353338Y-122677863D01*
X143172046Y-122826646D01*
X143023263Y-123007939D01*
X142912707Y-123214774D01*
X142844628Y-123439203D01*
X142827400Y-123614120D01*
X142668600Y-123614120D01*
X142668600Y-123614119D01*
X142651372Y-123439202D01*
X142583293Y-123214773D01*
X142472737Y-123007938D01*
X142323954Y-122826646D01*
X142142661Y-122677863D01*
X141935826Y-122567307D01*
X141711397Y-122499228D01*
X141478000Y-122476240D01*
X141244602Y-122499228D01*
X141020173Y-122567307D01*
X140813338Y-122677863D01*
X140632046Y-122826646D01*
X140483263Y-123007939D01*
X140372707Y-123214774D01*
X140304628Y-123439203D01*
X140287400Y-123614120D01*
X140128600Y-123614120D01*
X140128600Y-123614119D01*
X140111372Y-123439202D01*
X140043293Y-123214773D01*
X139932737Y-123007938D01*
X139783954Y-122826646D01*
X139602661Y-122677863D01*
X139395826Y-122567307D01*
X139171397Y-122499228D01*
X138938000Y-122476240D01*
X138704602Y-122499228D01*
X138480173Y-122567307D01*
X138273338Y-122677863D01*
X138092046Y-122826646D01*
X137943263Y-123007939D01*
X137832707Y-123214774D01*
X137764628Y-123439203D01*
X137747400Y-123614120D01*
X127327000Y-123614120D01*
X127327000Y-123592659D01*
X127236345Y-123136905D01*
X127058519Y-122707595D01*
X126800355Y-122321225D01*
X126471775Y-121992645D01*
X126085405Y-121734481D01*
X125656095Y-121556655D01*
X125200341Y-121466000D01*
X124735659Y-121466000D01*
X124279905Y-121556655D01*
X123850595Y-121734481D01*
X123464225Y-121992645D01*
X123135645Y-122321225D01*
X122877481Y-122707595D01*
X122699655Y-123136905D01*
X122609000Y-123592659D01*
X122609000Y-124057341D01*
X122699655Y-124513095D01*
X122877481Y-124942405D01*
X123135645Y-125328775D01*
X123464225Y-125657355D01*
X123850595Y-125915519D01*
X123965224Y-125963000D01*
X111400000Y-125963000D01*
X111400000Y-120007000D01*
X114177928Y-120007000D01*
X114190188Y-120131482D01*
X114226498Y-120251180D01*
X114285463Y-120361494D01*
X114364815Y-120458185D01*
X114461506Y-120537537D01*
X114571820Y-120596502D01*
X114691518Y-120632812D01*
X114816000Y-120645072D01*
X115792250Y-120642000D01*
X115951000Y-120483250D01*
X115951000Y-118872000D01*
X116205000Y-118872000D01*
X116205000Y-120483250D01*
X116363750Y-120642000D01*
X117340000Y-120645072D01*
X117464482Y-120632812D01*
X117584180Y-120596502D01*
X117694494Y-120537537D01*
X117791185Y-120458185D01*
X117870537Y-120361494D01*
X117929502Y-120251180D01*
X117965812Y-120131482D01*
X117978072Y-120007000D01*
X117975000Y-119030750D01*
X117816250Y-118872000D01*
X116205000Y-118872000D01*
X115951000Y-118872000D01*
X114339750Y-118872000D01*
X114181000Y-119030750D01*
X114177928Y-120007000D01*
X111400000Y-120007000D01*
X111400000Y-117483000D01*
X114177928Y-117483000D01*
X114181000Y-118459250D01*
X114339750Y-118618000D01*
X115951000Y-118618000D01*
X115951000Y-117006750D01*
X116205000Y-117006750D01*
X116205000Y-118618000D01*
X117816250Y-118618000D01*
X117975000Y-118459250D01*
X117978072Y-117483000D01*
X129727418Y-117483000D01*
X129727418Y-120007000D01*
X129733732Y-120071103D01*
X129752430Y-120132743D01*
X129782794Y-120189550D01*
X129823657Y-120239343D01*
X129873450Y-120280206D01*
X129930257Y-120310570D01*
X129991897Y-120329268D01*
X130056000Y-120335582D01*
X132580000Y-120335582D01*
X132644103Y-120329268D01*
X132705743Y-120310570D01*
X132762550Y-120280206D01*
X132812343Y-120239343D01*
X132853206Y-120189550D01*
X132883570Y-120132743D01*
X132902268Y-120071103D01*
X132908582Y-120007000D01*
X132908582Y-119191447D01*
X132918607Y-119190460D01*
X133003810Y-119164614D01*
X133082333Y-119122643D01*
X133151159Y-119066159D01*
X133207643Y-118997333D01*
X133249614Y-118918810D01*
X133275460Y-118833607D01*
X133284187Y-118745000D01*
X133275460Y-118656393D01*
X133249614Y-118571190D01*
X133207643Y-118492667D01*
X133151159Y-118423841D01*
X133082333Y-118367357D01*
X133003810Y-118325386D01*
X132918607Y-118299540D01*
X132908582Y-118298553D01*
X132908582Y-117483000D01*
X132902268Y-117418897D01*
X132883570Y-117357257D01*
X132853206Y-117300450D01*
X132812343Y-117250657D01*
X132762550Y-117209794D01*
X132705743Y-117179430D01*
X132644103Y-117160732D01*
X132580000Y-117154418D01*
X130056000Y-117154418D01*
X129991897Y-117160732D01*
X129930257Y-117179430D01*
X129873450Y-117209794D01*
X129823657Y-117250657D01*
X129782794Y-117300450D01*
X129752430Y-117357257D01*
X129733732Y-117418897D01*
X129727418Y-117483000D01*
X117978072Y-117483000D01*
X117965812Y-117358518D01*
X117929502Y-117238820D01*
X117870537Y-117128506D01*
X117791185Y-117031815D01*
X117694494Y-116952463D01*
X117584180Y-116893498D01*
X117464482Y-116857188D01*
X117340000Y-116844928D01*
X116363750Y-116848000D01*
X116205000Y-117006750D01*
X115951000Y-117006750D01*
X115792250Y-116848000D01*
X114816000Y-116844928D01*
X114691518Y-116857188D01*
X114571820Y-116893498D01*
X114461506Y-116952463D01*
X114364815Y-117031815D01*
X114285463Y-117128506D01*
X114226498Y-117238820D01*
X114190188Y-117358518D01*
X114177928Y-117483000D01*
X111400000Y-117483000D01*
X111400000Y-84447000D01*
X114177928Y-84447000D01*
X114190188Y-84571482D01*
X114226498Y-84691180D01*
X114285463Y-84801494D01*
X114364815Y-84898185D01*
X114461506Y-84977537D01*
X114571820Y-85036502D01*
X114691518Y-85072812D01*
X114816000Y-85085072D01*
X115792250Y-85082000D01*
X115951000Y-84923250D01*
X115951000Y-83312000D01*
X116205000Y-83312000D01*
X116205000Y-84923250D01*
X116363750Y-85082000D01*
X117340000Y-85085072D01*
X117464482Y-85072812D01*
X117584180Y-85036502D01*
X117694494Y-84977537D01*
X117791185Y-84898185D01*
X117870537Y-84801494D01*
X117929502Y-84691180D01*
X117965812Y-84571482D01*
X117978072Y-84447000D01*
X117975000Y-83470750D01*
X117816250Y-83312000D01*
X116205000Y-83312000D01*
X115951000Y-83312000D01*
X114339750Y-83312000D01*
X114181000Y-83470750D01*
X114177928Y-84447000D01*
X111400000Y-84447000D01*
X111400000Y-81923000D01*
X114177928Y-81923000D01*
X114181000Y-82899250D01*
X114339750Y-83058000D01*
X115951000Y-83058000D01*
X115951000Y-81446750D01*
X116205000Y-81446750D01*
X116205000Y-83058000D01*
X117816250Y-83058000D01*
X117975000Y-82899250D01*
X117978072Y-81923000D01*
X129727418Y-81923000D01*
X129727418Y-84447000D01*
X129733732Y-84511103D01*
X129752430Y-84572743D01*
X129782794Y-84629550D01*
X129823657Y-84679343D01*
X129873450Y-84720206D01*
X129930257Y-84750570D01*
X129991897Y-84769268D01*
X130056000Y-84775582D01*
X130866000Y-84775582D01*
X130866001Y-105870385D01*
X130863813Y-105892600D01*
X130872540Y-105981207D01*
X130898386Y-106066409D01*
X130898387Y-106066410D01*
X130940358Y-106144933D01*
X130996842Y-106213759D01*
X131014096Y-106227919D01*
X147995578Y-123209403D01*
X147992707Y-123214774D01*
X147924628Y-123439203D01*
X147907400Y-123614120D01*
X147907400Y-124035881D01*
X147924628Y-124210798D01*
X147992707Y-124435227D01*
X148103264Y-124642062D01*
X148252047Y-124823354D01*
X148433339Y-124972137D01*
X148640174Y-125082693D01*
X148864603Y-125150772D01*
X149098000Y-125173760D01*
X149331398Y-125150772D01*
X149555827Y-125082693D01*
X149762662Y-124972137D01*
X149943954Y-124823354D01*
X150092737Y-124642061D01*
X150203293Y-124435226D01*
X150208761Y-124417202D01*
X150222227Y-124472633D01*
X150346046Y-124739321D01*
X150519514Y-124976729D01*
X150735965Y-125175733D01*
X150987081Y-125328686D01*
X151263211Y-125429709D01*
X151278974Y-125432358D01*
X151511000Y-125311217D01*
X151511000Y-123952000D01*
X151765000Y-123952000D01*
X151765000Y-125311217D01*
X151997026Y-125432358D01*
X152012789Y-125429709D01*
X152288919Y-125328686D01*
X152540035Y-125175733D01*
X152756486Y-124976729D01*
X152908000Y-124769367D01*
X153059514Y-124976729D01*
X153275965Y-125175733D01*
X153527081Y-125328686D01*
X153803211Y-125429709D01*
X153818974Y-125432358D01*
X154051000Y-125311217D01*
X154051000Y-123952000D01*
X151765000Y-123952000D01*
X151511000Y-123952000D01*
X151491000Y-123952000D01*
X151491000Y-123698000D01*
X151511000Y-123698000D01*
X151511000Y-122338783D01*
X151765000Y-122338783D01*
X151765000Y-123698000D01*
X154051000Y-123698000D01*
X154051000Y-122338783D01*
X154305000Y-122338783D01*
X154305000Y-123698000D01*
X154325000Y-123698000D01*
X154325000Y-123952000D01*
X154305000Y-123952000D01*
X154305000Y-125311217D01*
X154537026Y-125432358D01*
X154552789Y-125429709D01*
X154828919Y-125328686D01*
X155080035Y-125175733D01*
X155296486Y-124976729D01*
X155469954Y-124739321D01*
X155593773Y-124472633D01*
X155607239Y-124417202D01*
X155612707Y-124435227D01*
X155723264Y-124642062D01*
X155872047Y-124823354D01*
X156053339Y-124972137D01*
X156260174Y-125082693D01*
X156484603Y-125150772D01*
X156718000Y-125173760D01*
X156951398Y-125150772D01*
X157175827Y-125082693D01*
X157382662Y-124972137D01*
X157563954Y-124823354D01*
X157712737Y-124642061D01*
X157823293Y-124435226D01*
X157891372Y-124210797D01*
X157908600Y-124035880D01*
X157908600Y-123614120D01*
X160607400Y-123614120D01*
X160607400Y-124035881D01*
X160624628Y-124210798D01*
X160692707Y-124435227D01*
X160803264Y-124642062D01*
X160952047Y-124823354D01*
X161133339Y-124972137D01*
X161340174Y-125082693D01*
X161564603Y-125150772D01*
X161798000Y-125173760D01*
X162031398Y-125150772D01*
X162255827Y-125082693D01*
X162462662Y-124972137D01*
X162643954Y-124823354D01*
X162792737Y-124642061D01*
X162903293Y-124435226D01*
X162971372Y-124210797D01*
X162988600Y-124035880D01*
X162988600Y-123614120D01*
X163147400Y-123614120D01*
X163147400Y-124035881D01*
X163164628Y-124210798D01*
X163232707Y-124435227D01*
X163343264Y-124642062D01*
X163492047Y-124823354D01*
X163673339Y-124972137D01*
X163880174Y-125082693D01*
X164104603Y-125150772D01*
X164338000Y-125173760D01*
X164571398Y-125150772D01*
X164795827Y-125082693D01*
X165002662Y-124972137D01*
X165183954Y-124823354D01*
X165332737Y-124642061D01*
X165443293Y-124435226D01*
X165511372Y-124210797D01*
X165528600Y-124035880D01*
X165528600Y-123614120D01*
X165687400Y-123614120D01*
X165687400Y-124035881D01*
X165704628Y-124210798D01*
X165772707Y-124435227D01*
X165883264Y-124642062D01*
X166032047Y-124823354D01*
X166213339Y-124972137D01*
X166420174Y-125082693D01*
X166644603Y-125150772D01*
X166878000Y-125173760D01*
X167111398Y-125150772D01*
X167335827Y-125082693D01*
X167542662Y-124972137D01*
X167723954Y-124823354D01*
X167872737Y-124642061D01*
X167983293Y-124435226D01*
X168051372Y-124210797D01*
X168068600Y-124035880D01*
X168068600Y-123614120D01*
X168227400Y-123614120D01*
X168227400Y-124035881D01*
X168244628Y-124210798D01*
X168312707Y-124435227D01*
X168423264Y-124642062D01*
X168572047Y-124823354D01*
X168753339Y-124972137D01*
X168960174Y-125082693D01*
X169184603Y-125150772D01*
X169418000Y-125173760D01*
X169651398Y-125150772D01*
X169875827Y-125082693D01*
X170082662Y-124972137D01*
X170263954Y-124823354D01*
X170412737Y-124642061D01*
X170523293Y-124435226D01*
X170591372Y-124210797D01*
X170608600Y-124035880D01*
X170608600Y-123614120D01*
X170767400Y-123614120D01*
X170767400Y-124035881D01*
X170784628Y-124210798D01*
X170852707Y-124435227D01*
X170963264Y-124642062D01*
X171112047Y-124823354D01*
X171293339Y-124972137D01*
X171500174Y-125082693D01*
X171724603Y-125150772D01*
X171958000Y-125173760D01*
X172191398Y-125150772D01*
X172415827Y-125082693D01*
X172622662Y-124972137D01*
X172803954Y-124823354D01*
X172952737Y-124642061D01*
X173063293Y-124435226D01*
X173131372Y-124210797D01*
X173148600Y-124035880D01*
X173148600Y-123614120D01*
X173307400Y-123614120D01*
X173307400Y-124035881D01*
X173324628Y-124210798D01*
X173392707Y-124435227D01*
X173503264Y-124642062D01*
X173652047Y-124823354D01*
X173833339Y-124972137D01*
X174040174Y-125082693D01*
X174264603Y-125150772D01*
X174498000Y-125173760D01*
X174731398Y-125150772D01*
X174955827Y-125082693D01*
X175162662Y-124972137D01*
X175343954Y-124823354D01*
X175492737Y-124642061D01*
X175603293Y-124435226D01*
X175671372Y-124210797D01*
X175688600Y-124035880D01*
X175688600Y-123614119D01*
X175671372Y-123439202D01*
X175603293Y-123214773D01*
X175492737Y-123007938D01*
X175343954Y-122826646D01*
X175162661Y-122677863D01*
X174955826Y-122567307D01*
X174731397Y-122499228D01*
X174498000Y-122476240D01*
X174264602Y-122499228D01*
X174040173Y-122567307D01*
X173833338Y-122677863D01*
X173652046Y-122826646D01*
X173503263Y-123007939D01*
X173392707Y-123214774D01*
X173324628Y-123439203D01*
X173307400Y-123614120D01*
X173148600Y-123614120D01*
X173148600Y-123614119D01*
X173131372Y-123439202D01*
X173063293Y-123214773D01*
X172952737Y-123007938D01*
X172803954Y-122826646D01*
X172622661Y-122677863D01*
X172415826Y-122567307D01*
X172191397Y-122499228D01*
X171958000Y-122476240D01*
X171724602Y-122499228D01*
X171500173Y-122567307D01*
X171293338Y-122677863D01*
X171112046Y-122826646D01*
X170963263Y-123007939D01*
X170852707Y-123214774D01*
X170784628Y-123439203D01*
X170767400Y-123614120D01*
X170608600Y-123614120D01*
X170608600Y-123614119D01*
X170591372Y-123439202D01*
X170523293Y-123214773D01*
X170412737Y-123007938D01*
X170263954Y-122826646D01*
X170082661Y-122677863D01*
X169875826Y-122567307D01*
X169651397Y-122499228D01*
X169418000Y-122476240D01*
X169184602Y-122499228D01*
X168960173Y-122567307D01*
X168753338Y-122677863D01*
X168572046Y-122826646D01*
X168423263Y-123007939D01*
X168312707Y-123214774D01*
X168244628Y-123439203D01*
X168227400Y-123614120D01*
X168068600Y-123614120D01*
X168068600Y-123614119D01*
X168051372Y-123439202D01*
X167983293Y-123214773D01*
X167872737Y-123007938D01*
X167723954Y-122826646D01*
X167542661Y-122677863D01*
X167335826Y-122567307D01*
X167111397Y-122499228D01*
X166878000Y-122476240D01*
X166644602Y-122499228D01*
X166420173Y-122567307D01*
X166213338Y-122677863D01*
X166032046Y-122826646D01*
X165883263Y-123007939D01*
X165772707Y-123214774D01*
X165704628Y-123439203D01*
X165687400Y-123614120D01*
X165528600Y-123614120D01*
X165528600Y-123614119D01*
X165511372Y-123439202D01*
X165443293Y-123214773D01*
X165332737Y-123007938D01*
X165183954Y-122826646D01*
X165002661Y-122677863D01*
X164795826Y-122567307D01*
X164571397Y-122499228D01*
X164338000Y-122476240D01*
X164104602Y-122499228D01*
X163880173Y-122567307D01*
X163673338Y-122677863D01*
X163492046Y-122826646D01*
X163343263Y-123007939D01*
X163232707Y-123214774D01*
X163164628Y-123439203D01*
X163147400Y-123614120D01*
X162988600Y-123614120D01*
X162988600Y-123614119D01*
X162971372Y-123439202D01*
X162903293Y-123214773D01*
X162792737Y-123007938D01*
X162643954Y-122826646D01*
X162462661Y-122677863D01*
X162255826Y-122567307D01*
X162031397Y-122499228D01*
X161798000Y-122476240D01*
X161564602Y-122499228D01*
X161340173Y-122567307D01*
X161133338Y-122677863D01*
X160952046Y-122826646D01*
X160803263Y-123007939D01*
X160692707Y-123214774D01*
X160624628Y-123439203D01*
X160607400Y-123614120D01*
X157908600Y-123614120D01*
X157908600Y-123614119D01*
X157891372Y-123439202D01*
X157823293Y-123214773D01*
X157712737Y-123007938D01*
X157563954Y-122826646D01*
X157382661Y-122677863D01*
X157175826Y-122567307D01*
X156951397Y-122499228D01*
X156718000Y-122476240D01*
X156484602Y-122499228D01*
X156260173Y-122567307D01*
X156053338Y-122677863D01*
X155872046Y-122826646D01*
X155723263Y-123007939D01*
X155612707Y-123214774D01*
X155607239Y-123232798D01*
X155593773Y-123177367D01*
X155469954Y-122910679D01*
X155296486Y-122673271D01*
X155080035Y-122474267D01*
X154828919Y-122321314D01*
X154552789Y-122220291D01*
X154537026Y-122217642D01*
X154305000Y-122338783D01*
X154051000Y-122338783D01*
X153818974Y-122217642D01*
X153803211Y-122220291D01*
X153527081Y-122321314D01*
X153275965Y-122474267D01*
X153059514Y-122673271D01*
X152908000Y-122880633D01*
X152756486Y-122673271D01*
X152540035Y-122474267D01*
X152288919Y-122321314D01*
X152012789Y-122220291D01*
X151997026Y-122217642D01*
X151765000Y-122338783D01*
X151511000Y-122338783D01*
X151278974Y-122217642D01*
X151263211Y-122220291D01*
X150987081Y-122321314D01*
X150735965Y-122474267D01*
X150519514Y-122673271D01*
X150346046Y-122910679D01*
X150222227Y-123177367D01*
X150208761Y-123232798D01*
X150203293Y-123214773D01*
X150092737Y-123007938D01*
X149943954Y-122826646D01*
X149762661Y-122677863D01*
X149555826Y-122567307D01*
X149331397Y-122499228D01*
X149098000Y-122476240D01*
X148864602Y-122499228D01*
X148640173Y-122567307D01*
X148634803Y-122570178D01*
X132027767Y-105963143D01*
X149406000Y-105963143D01*
X149406000Y-106177657D01*
X149447850Y-106388050D01*
X149529941Y-106586235D01*
X149649119Y-106764597D01*
X149800803Y-106916281D01*
X149979165Y-107035459D01*
X150043001Y-107061901D01*
X150043000Y-118341795D01*
X150040813Y-118364000D01*
X150043000Y-118386204D01*
X150049540Y-118452606D01*
X150075386Y-118537809D01*
X150117357Y-118616332D01*
X150173841Y-118685159D01*
X150191100Y-118699323D01*
X151556685Y-120064910D01*
X151570841Y-120082159D01*
X151639667Y-120138643D01*
X151718190Y-120180614D01*
X151783562Y-120200444D01*
X151803392Y-120206460D01*
X151891999Y-120215187D01*
X151914204Y-120213000D01*
X153743288Y-120213000D01*
X153778311Y-120248023D01*
X153881004Y-120316640D01*
X153995111Y-120363905D01*
X154116246Y-120388000D01*
X154239754Y-120388000D01*
X154360889Y-120363905D01*
X154474996Y-120316640D01*
X154577689Y-120248023D01*
X154665023Y-120160689D01*
X154733640Y-120057996D01*
X154780905Y-119943889D01*
X154805000Y-119822754D01*
X154805000Y-119699246D01*
X154780905Y-119578111D01*
X154733640Y-119464004D01*
X154665023Y-119361311D01*
X154577689Y-119273977D01*
X154474996Y-119205360D01*
X154360889Y-119158095D01*
X154239754Y-119134000D01*
X154116246Y-119134000D01*
X153995111Y-119158095D01*
X153881004Y-119205360D01*
X153778311Y-119273977D01*
X153743288Y-119309000D01*
X152079225Y-119309000D01*
X150947000Y-118176777D01*
X150947000Y-107061900D01*
X151010835Y-107035459D01*
X151189197Y-106916281D01*
X151340881Y-106764597D01*
X151460059Y-106586235D01*
X151542150Y-106388050D01*
X151584000Y-106177657D01*
X151584000Y-105963143D01*
X151542150Y-105752750D01*
X151460059Y-105554565D01*
X151340881Y-105376203D01*
X151189197Y-105224519D01*
X151010835Y-105105341D01*
X150812650Y-105023250D01*
X150602257Y-104981400D01*
X150387743Y-104981400D01*
X150177350Y-105023250D01*
X149979165Y-105105341D01*
X149800803Y-105224519D01*
X149649119Y-105376203D01*
X149529941Y-105554565D01*
X149447850Y-105752750D01*
X149406000Y-105963143D01*
X132027767Y-105963143D01*
X131770000Y-105705377D01*
X131770000Y-100854000D01*
X139081000Y-100854000D01*
X139081000Y-101076000D01*
X139124310Y-101293734D01*
X139209266Y-101498835D01*
X139332602Y-101683421D01*
X139489579Y-101840398D01*
X139674165Y-101963734D01*
X139879266Y-102048690D01*
X140097000Y-102092000D01*
X140319000Y-102092000D01*
X140536734Y-102048690D01*
X140741835Y-101963734D01*
X140926421Y-101840398D01*
X141083398Y-101683421D01*
X141206734Y-101498835D01*
X141291690Y-101293734D01*
X141335000Y-101076000D01*
X141335000Y-100854000D01*
X141621000Y-100854000D01*
X141621000Y-101076000D01*
X141664310Y-101293734D01*
X141749266Y-101498835D01*
X141872602Y-101683421D01*
X142029579Y-101840398D01*
X142214165Y-101963734D01*
X142419266Y-102048690D01*
X142637000Y-102092000D01*
X142859000Y-102092000D01*
X143076734Y-102048690D01*
X143281835Y-101963734D01*
X143466421Y-101840398D01*
X143623398Y-101683421D01*
X143746734Y-101498835D01*
X143831690Y-101293734D01*
X143875000Y-101076000D01*
X143875000Y-100854000D01*
X144161000Y-100854000D01*
X144161000Y-101076000D01*
X144204310Y-101293734D01*
X144289266Y-101498835D01*
X144412602Y-101683421D01*
X144569579Y-101840398D01*
X144754165Y-101963734D01*
X144959266Y-102048690D01*
X145177000Y-102092000D01*
X145399000Y-102092000D01*
X145616734Y-102048690D01*
X145821835Y-101963734D01*
X146006421Y-101840398D01*
X146163398Y-101683421D01*
X146286734Y-101498835D01*
X146371690Y-101293734D01*
X146415000Y-101076000D01*
X146415000Y-100854000D01*
X146701000Y-100854000D01*
X146701000Y-101076000D01*
X146744310Y-101293734D01*
X146829266Y-101498835D01*
X146952602Y-101683421D01*
X147109579Y-101840398D01*
X147294165Y-101963734D01*
X147499266Y-102048690D01*
X147717000Y-102092000D01*
X147939000Y-102092000D01*
X148156734Y-102048690D01*
X148361835Y-101963734D01*
X148546421Y-101840398D01*
X148703398Y-101683421D01*
X148826734Y-101498835D01*
X148911690Y-101293734D01*
X148955000Y-101076000D01*
X148955000Y-100854000D01*
X149241000Y-100854000D01*
X149241000Y-101076000D01*
X149284310Y-101293734D01*
X149369266Y-101498835D01*
X149492602Y-101683421D01*
X149649579Y-101840398D01*
X149834165Y-101963734D01*
X150039266Y-102048690D01*
X150257000Y-102092000D01*
X150479000Y-102092000D01*
X150696734Y-102048690D01*
X150901835Y-101963734D01*
X151086421Y-101840398D01*
X151243398Y-101683421D01*
X151366734Y-101498835D01*
X151451690Y-101293734D01*
X151495000Y-101076000D01*
X151495000Y-100854000D01*
X151781000Y-100854000D01*
X151781000Y-101076000D01*
X151824310Y-101293734D01*
X151909266Y-101498835D01*
X152032602Y-101683421D01*
X152189579Y-101840398D01*
X152374165Y-101963734D01*
X152579266Y-102048690D01*
X152797000Y-102092000D01*
X153019000Y-102092000D01*
X153236734Y-102048690D01*
X153441835Y-101963734D01*
X153626421Y-101840398D01*
X153783398Y-101683421D01*
X153906734Y-101498835D01*
X153991690Y-101293734D01*
X154035000Y-101076000D01*
X154035000Y-100854000D01*
X154321000Y-100854000D01*
X154321000Y-101076000D01*
X154364310Y-101293734D01*
X154449266Y-101498835D01*
X154572602Y-101683421D01*
X154729579Y-101840398D01*
X154914165Y-101963734D01*
X155119266Y-102048690D01*
X155337000Y-102092000D01*
X155559000Y-102092000D01*
X155776734Y-102048690D01*
X155981835Y-101963734D01*
X156166421Y-101840398D01*
X156323398Y-101683421D01*
X156446734Y-101498835D01*
X156531690Y-101293734D01*
X156575000Y-101076000D01*
X156575000Y-100854000D01*
X156861000Y-100854000D01*
X156861000Y-101076000D01*
X156904310Y-101293734D01*
X156989266Y-101498835D01*
X157112602Y-101683421D01*
X157269579Y-101840398D01*
X157454165Y-101963734D01*
X157659266Y-102048690D01*
X157877000Y-102092000D01*
X158099000Y-102092000D01*
X158316734Y-102048690D01*
X158521835Y-101963734D01*
X158706421Y-101840398D01*
X158863398Y-101683421D01*
X158986734Y-101498835D01*
X159071690Y-101293734D01*
X159115000Y-101076000D01*
X159115000Y-100854000D01*
X159401000Y-100854000D01*
X159401000Y-101076000D01*
X159444310Y-101293734D01*
X159529266Y-101498835D01*
X159652602Y-101683421D01*
X159809579Y-101840398D01*
X159994165Y-101963734D01*
X160199266Y-102048690D01*
X160417000Y-102092000D01*
X160639000Y-102092000D01*
X160856734Y-102048690D01*
X161061835Y-101963734D01*
X161070862Y-101957702D01*
X162254903Y-101957702D01*
X162326486Y-102201671D01*
X162581996Y-102322571D01*
X162856184Y-102391300D01*
X163138512Y-102405217D01*
X163418130Y-102363787D01*
X163684292Y-102268603D01*
X163809514Y-102201671D01*
X163881097Y-101957702D01*
X163068000Y-101144605D01*
X162254903Y-101957702D01*
X161070862Y-101957702D01*
X161246421Y-101840398D01*
X161403398Y-101683421D01*
X161526734Y-101498835D01*
X161611690Y-101293734D01*
X161642840Y-101137133D01*
X161669213Y-101315130D01*
X161764397Y-101581292D01*
X161831329Y-101706514D01*
X162075298Y-101778097D01*
X162888395Y-100965000D01*
X163247605Y-100965000D01*
X164060702Y-101778097D01*
X164304671Y-101706514D01*
X164425571Y-101451004D01*
X164494300Y-101176816D01*
X164508217Y-100894488D01*
X164466787Y-100614870D01*
X164371603Y-100348708D01*
X164304671Y-100223486D01*
X164060702Y-100151903D01*
X163247605Y-100965000D01*
X162888395Y-100965000D01*
X162075298Y-100151903D01*
X161831329Y-100223486D01*
X161710429Y-100478996D01*
X161641700Y-100753184D01*
X161640359Y-100780393D01*
X161611690Y-100636266D01*
X161526734Y-100431165D01*
X161403398Y-100246579D01*
X161246421Y-100089602D01*
X161070863Y-99972298D01*
X162254903Y-99972298D01*
X163068000Y-100785395D01*
X163881097Y-99972298D01*
X163809514Y-99728329D01*
X163554004Y-99607429D01*
X163279816Y-99538700D01*
X162997488Y-99524783D01*
X162717870Y-99566213D01*
X162451708Y-99661397D01*
X162326486Y-99728329D01*
X162254903Y-99972298D01*
X161070863Y-99972298D01*
X161061835Y-99966266D01*
X160856734Y-99881310D01*
X160639000Y-99838000D01*
X160417000Y-99838000D01*
X160199266Y-99881310D01*
X159994165Y-99966266D01*
X159809579Y-100089602D01*
X159652602Y-100246579D01*
X159529266Y-100431165D01*
X159444310Y-100636266D01*
X159401000Y-100854000D01*
X159115000Y-100854000D01*
X159071690Y-100636266D01*
X158986734Y-100431165D01*
X158863398Y-100246579D01*
X158706421Y-100089602D01*
X158521835Y-99966266D01*
X158316734Y-99881310D01*
X158099000Y-99838000D01*
X157877000Y-99838000D01*
X157659266Y-99881310D01*
X157454165Y-99966266D01*
X157269579Y-100089602D01*
X157112602Y-100246579D01*
X156989266Y-100431165D01*
X156904310Y-100636266D01*
X156861000Y-100854000D01*
X156575000Y-100854000D01*
X156531690Y-100636266D01*
X156446734Y-100431165D01*
X156323398Y-100246579D01*
X156166421Y-100089602D01*
X155981835Y-99966266D01*
X155776734Y-99881310D01*
X155559000Y-99838000D01*
X155337000Y-99838000D01*
X155119266Y-99881310D01*
X154914165Y-99966266D01*
X154729579Y-100089602D01*
X154572602Y-100246579D01*
X154449266Y-100431165D01*
X154364310Y-100636266D01*
X154321000Y-100854000D01*
X154035000Y-100854000D01*
X153991690Y-100636266D01*
X153906734Y-100431165D01*
X153783398Y-100246579D01*
X153626421Y-100089602D01*
X153441835Y-99966266D01*
X153236734Y-99881310D01*
X153019000Y-99838000D01*
X152797000Y-99838000D01*
X152579266Y-99881310D01*
X152374165Y-99966266D01*
X152189579Y-100089602D01*
X152032602Y-100246579D01*
X151909266Y-100431165D01*
X151824310Y-100636266D01*
X151781000Y-100854000D01*
X151495000Y-100854000D01*
X151451690Y-100636266D01*
X151366734Y-100431165D01*
X151243398Y-100246579D01*
X151086421Y-100089602D01*
X150901835Y-99966266D01*
X150696734Y-99881310D01*
X150479000Y-99838000D01*
X150257000Y-99838000D01*
X150039266Y-99881310D01*
X149834165Y-99966266D01*
X149649579Y-100089602D01*
X149492602Y-100246579D01*
X149369266Y-100431165D01*
X149284310Y-100636266D01*
X149241000Y-100854000D01*
X148955000Y-100854000D01*
X148911690Y-100636266D01*
X148826734Y-100431165D01*
X148703398Y-100246579D01*
X148546421Y-100089602D01*
X148361835Y-99966266D01*
X148156734Y-99881310D01*
X147939000Y-99838000D01*
X147717000Y-99838000D01*
X147499266Y-99881310D01*
X147294165Y-99966266D01*
X147109579Y-100089602D01*
X146952602Y-100246579D01*
X146829266Y-100431165D01*
X146744310Y-100636266D01*
X146701000Y-100854000D01*
X146415000Y-100854000D01*
X146371690Y-100636266D01*
X146286734Y-100431165D01*
X146163398Y-100246579D01*
X146006421Y-100089602D01*
X145821835Y-99966266D01*
X145616734Y-99881310D01*
X145399000Y-99838000D01*
X145177000Y-99838000D01*
X144959266Y-99881310D01*
X144754165Y-99966266D01*
X144569579Y-100089602D01*
X144412602Y-100246579D01*
X144289266Y-100431165D01*
X144204310Y-100636266D01*
X144161000Y-100854000D01*
X143875000Y-100854000D01*
X143831690Y-100636266D01*
X143746734Y-100431165D01*
X143623398Y-100246579D01*
X143466421Y-100089602D01*
X143281835Y-99966266D01*
X143076734Y-99881310D01*
X142859000Y-99838000D01*
X142637000Y-99838000D01*
X142419266Y-99881310D01*
X142214165Y-99966266D01*
X142029579Y-100089602D01*
X141872602Y-100246579D01*
X141749266Y-100431165D01*
X141664310Y-100636266D01*
X141621000Y-100854000D01*
X141335000Y-100854000D01*
X141291690Y-100636266D01*
X141206734Y-100431165D01*
X141083398Y-100246579D01*
X140926421Y-100089602D01*
X140741835Y-99966266D01*
X140536734Y-99881310D01*
X140319000Y-99838000D01*
X140097000Y-99838000D01*
X139879266Y-99881310D01*
X139674165Y-99966266D01*
X139489579Y-100089602D01*
X139332602Y-100246579D01*
X139209266Y-100431165D01*
X139124310Y-100636266D01*
X139081000Y-100854000D01*
X131770000Y-100854000D01*
X131770000Y-95315246D01*
X170569000Y-95315246D01*
X170569000Y-95438754D01*
X170593095Y-95559889D01*
X170640360Y-95673996D01*
X170708977Y-95776689D01*
X170744000Y-95811712D01*
X170744001Y-101140785D01*
X170741813Y-101163000D01*
X170750540Y-101251607D01*
X170776386Y-101336809D01*
X170776387Y-101336810D01*
X170818358Y-101415333D01*
X170874842Y-101484159D01*
X170892096Y-101498319D01*
X172899418Y-103505642D01*
X172899418Y-104695000D01*
X172905732Y-104759103D01*
X172924430Y-104820743D01*
X172954794Y-104877550D01*
X172995657Y-104927343D01*
X173045450Y-104968206D01*
X173102257Y-104998570D01*
X173163897Y-105017268D01*
X173228000Y-105023582D01*
X178308000Y-105023582D01*
X178372103Y-105017268D01*
X178433743Y-104998570D01*
X178490550Y-104968206D01*
X178540343Y-104927343D01*
X178581206Y-104877550D01*
X178611570Y-104820743D01*
X178630268Y-104759103D01*
X178636582Y-104695000D01*
X178636582Y-103195000D01*
X178630268Y-103130897D01*
X178611570Y-103069257D01*
X178581206Y-103012450D01*
X178540343Y-102962657D01*
X178490550Y-102921794D01*
X178433743Y-102891430D01*
X178372103Y-102872732D01*
X178308000Y-102866418D01*
X173538642Y-102866418D01*
X171648000Y-100975777D01*
X171648000Y-95897000D01*
X172899418Y-95897000D01*
X172899418Y-96195000D01*
X172905732Y-96259103D01*
X172924430Y-96320743D01*
X172954794Y-96377550D01*
X172995657Y-96427343D01*
X173045450Y-96468206D01*
X173102257Y-96498570D01*
X173163897Y-96517268D01*
X173228000Y-96523582D01*
X178308000Y-96523582D01*
X178372103Y-96517268D01*
X178433743Y-96498570D01*
X178490550Y-96468206D01*
X178540343Y-96427343D01*
X178581206Y-96377550D01*
X178611570Y-96320743D01*
X178630268Y-96259103D01*
X178636582Y-96195000D01*
X178636582Y-94695000D01*
X178630268Y-94630897D01*
X178611570Y-94569257D01*
X178581206Y-94512450D01*
X178540343Y-94462657D01*
X178490550Y-94421794D01*
X178433743Y-94391430D01*
X178372103Y-94372732D01*
X178308000Y-94366418D01*
X173228000Y-94366418D01*
X173163897Y-94372732D01*
X173102257Y-94391430D01*
X173045450Y-94421794D01*
X172995657Y-94462657D01*
X172954794Y-94512450D01*
X172924430Y-94569257D01*
X172905732Y-94630897D01*
X172899418Y-94695000D01*
X172899418Y-94993000D01*
X171693506Y-94993000D01*
X171683023Y-94977311D01*
X171595689Y-94889977D01*
X171492996Y-94821360D01*
X171378889Y-94774095D01*
X171257754Y-94750000D01*
X171134246Y-94750000D01*
X171013111Y-94774095D01*
X170899004Y-94821360D01*
X170796311Y-94889977D01*
X170708977Y-94977311D01*
X170640360Y-95080004D01*
X170593095Y-95194111D01*
X170569000Y-95315246D01*
X131770000Y-95315246D01*
X131770000Y-84775582D01*
X132580000Y-84775582D01*
X132644103Y-84769268D01*
X132705743Y-84750570D01*
X132762550Y-84720206D01*
X132812343Y-84679343D01*
X132853206Y-84629550D01*
X132883570Y-84572743D01*
X132902268Y-84511103D01*
X132908582Y-84447000D01*
X132908582Y-83637000D01*
X134940777Y-83637000D01*
X139158207Y-87854431D01*
X139124310Y-87936266D01*
X139081000Y-88154000D01*
X139081000Y-88376000D01*
X139124310Y-88593734D01*
X139209266Y-88798835D01*
X139332602Y-88983421D01*
X139489579Y-89140398D01*
X139674165Y-89263734D01*
X139879266Y-89348690D01*
X140097000Y-89392000D01*
X140319000Y-89392000D01*
X140536734Y-89348690D01*
X140741835Y-89263734D01*
X140926421Y-89140398D01*
X141083398Y-88983421D01*
X141206734Y-88798835D01*
X141291690Y-88593734D01*
X141335000Y-88376000D01*
X141335000Y-88154000D01*
X141291690Y-87936266D01*
X141206734Y-87731165D01*
X141083398Y-87546579D01*
X140926421Y-87389602D01*
X140741835Y-87266266D01*
X140536734Y-87181310D01*
X140319000Y-87138000D01*
X140097000Y-87138000D01*
X139879266Y-87181310D01*
X139797431Y-87215207D01*
X135463323Y-82881100D01*
X135449159Y-82863841D01*
X135380333Y-82807357D01*
X135301810Y-82765386D01*
X135216607Y-82739540D01*
X135150205Y-82733000D01*
X135128000Y-82730813D01*
X135105795Y-82733000D01*
X132908582Y-82733000D01*
X132908582Y-81923000D01*
X132902268Y-81858897D01*
X132883570Y-81797257D01*
X132853206Y-81740450D01*
X132812343Y-81690657D01*
X132762550Y-81649794D01*
X132705743Y-81619430D01*
X132644103Y-81600732D01*
X132580000Y-81594418D01*
X130056000Y-81594418D01*
X129991897Y-81600732D01*
X129930257Y-81619430D01*
X129873450Y-81649794D01*
X129823657Y-81690657D01*
X129782794Y-81740450D01*
X129752430Y-81797257D01*
X129733732Y-81858897D01*
X129727418Y-81923000D01*
X117978072Y-81923000D01*
X117965812Y-81798518D01*
X117929502Y-81678820D01*
X117870537Y-81568506D01*
X117791185Y-81471815D01*
X117694494Y-81392463D01*
X117584180Y-81333498D01*
X117464482Y-81297188D01*
X117340000Y-81284928D01*
X116363750Y-81288000D01*
X116205000Y-81446750D01*
X115951000Y-81446750D01*
X115792250Y-81288000D01*
X114816000Y-81284928D01*
X114691518Y-81297188D01*
X114571820Y-81333498D01*
X114461506Y-81392463D01*
X114364815Y-81471815D01*
X114285463Y-81568506D01*
X114226498Y-81678820D01*
X114190188Y-81798518D01*
X114177928Y-81923000D01*
X111400000Y-81923000D01*
X111400000Y-73427000D01*
X125235224Y-73427000D01*
X125120595Y-73474481D01*
M02*
